<svg width="16" height="16" xmlns="http://www.w3.org/2000/svg"><path d="M15 8c0-3.719-2.915-6.769-6.581-6.986A2.08 2.08 0 0 0 8.19 1c-.023 0-.046.002-.068.003L8 1C4.14 1 1 4.14 1 8s3.14 7 7 7l.123-.003c.023 0 .045.003.068.003.077 0 .153-.005.228-.014A7.006 7.006 0 0 0 15 8zm-1.302 2.253c-.241-.07-.845-.222-1.912-.347a13.382 13.382 0 0 0 .05-3.424c1.352-.161 1.944-.365 1.984-.379l-.163-.459c.303.726.471 1.522.471 2.356a6.09 6.09 0 0 1-.43 2.253zM4.909 8c0-.49.033-.967.092-1.427.708.056 1.554.097 2.55.106v3.036c-.97.01-1.797.049-2.493.102A11.093 11.093 0 0 1 4.909 8zm3.513-6.067c1.07.311 1.988 1.8 2.398 3.775-.66.053-1.455.091-2.398.1V1.933zm-.872.01v3.865a36.317 36.317 0 0 1-2.402-.1c.42-1.949 1.343-3.427 2.402-3.764zm0 8.644v3.469c-.987-.314-1.858-1.621-2.31-3.377.651-.048 1.42-.083 2.31-.092zm.872 3.48v-3.48c.9.008 1.666.045 2.31.094-.446 1.78-1.31 3.096-2.31 3.386zm0-4.352V6.68c1-.01 1.842-.052 2.54-.11a11.573 11.573 0 0 1-.054 3.25 34.951 34.951 0 0 0-2.486-.105zm5.074-4.423c-.132.041-.683.198-1.788.329-.246-1.312-.691-2.433-1.27-3.243a6.166 6.166 0 0 1 3.058 2.914zM5.91 2.24c-.712.82-1.294 1.998-1.612 3.392-.988-.108-1.581-.234-1.818-.291A6.162 6.162 0 0 1 5.91 2.24zM2.155 6.157c.168.046.804.204 1.986.335a10.9 10.9 0 0 0 .062 3.404c-1.015.11-1.64.241-1.92.31a6.109 6.109 0 0 1-.129-4.048zm.511 4.855a17.1 17.1 0 0 1 1.727-.258c.332 1.226.87 2.264 1.517 3.007a6.16 6.16 0 0 1-3.244-2.749zm7.772 2.61c.521-.729.934-1.71 1.19-2.855.866.1 1.41.216 1.683.285a6.164 6.164 0 0 1-2.873 2.57z" fill="#666"/></svg>