<svg width="16" height="16" xmlns="http://www.w3.org/2000/svg"><path d="M14.031 2.323H1.967A.972.972 0 0 0 1 3.298v10.05c0 .54.435.975.967.975h12.064A.973.973 0 0 0 15 13.35V3.299a.972.972 0 0 0-.969-.976zM11.252 13.24l-4.55-4.66a.447.447 0 0 0-.636-.002l-3.99 4.01v-1.937L9.28 3.407h1.907L10.06 4.545a.438.438 0 0 0-.03.032L7.66 6.97a.454.454 0 0 0-.001.636l5.521 5.632h-1.928zm-3.24-9.832L2.076 9.375V3.407h5.936zm1.983 9.832H2.698L6.38 9.538l3.615 3.701zM8.609 7.292l1.755-1.774 1.717 1.73-1.767 1.782-1.705-1.738zm2.334 2.38l2.09-2.104a.454.454 0 0 0-.001-.639l-2.035-2.05 1.457-1.472h1.47v9.306l-2.98-3.04z" fill="#666"/></svg>