<svg xmlns="http://www.w3.org/2000/svg"><defs><font id="HelveticaNeueLTStd25UltraLt" horiz-adv-x="1024"><font-face units-per-em="2048" ascent="1462" descent="-586"/><glyph horiz-adv-x="569"/><glyph horiz-adv-x="569"/><glyph horiz-adv-x="569"/><glyph unicode="!" horiz-adv-x="378" d="M170 0v201h41V0h-41zm0 373v1089h41V373h-41z"/><glyph unicode="&quot;" horiz-adv-x="569" d="M150 1001v461h40v-461h-40zm229 0v461h41v-461h-41z"/><glyph unicode="#" horiz-adv-x="1138" d="M72 469v41h266l49 362H129v41h268l64 480h41l-64-480h350l64 480h41l-64-480h238v-41H819l-49-362h240v-41H762L698 0h-41l64 469H369L305 0h-41l64 469H72zm307 41h350l49 362H428z"/><glyph unicode="$" horiz-adv-x="1138" d="M12 485h41Q53 24 543 8v729q-231 53-314 94-174 90-174 289 0 102 43 178t116 118 155 61.5 174 19.5v88h41v-90q467-10 487-442h-41q-14 391-446 401V770l16-4q20-4 57-14l104-28q34-9 91-27.5t85-36 64.5-47 54-64.5 31-83 13.5-108q0-193-153.5-293T584-35v-180h-41v182Q295-23 152 105 13 229 12 471v14zm84 635q0-51 14.5-93t33-71.5T201 900t67.5-41 86.5-32l89-24q31-8 99-23v676q-115-2-209-29.5T168 1320t-72-200zM584 6q193 0 334 89t141 265q0 41-9.5 77t-18.5 63.5-34.5 52.5l-41 41-54.5 35-55 26q-16 8-65.5 22.5T718 695l-70 17-64 15V6z"/><glyph unicode="%" horiz-adv-x="1402" d="M43 1063q0 158 83 256t228 98q152 0 235-97t83-255q0-147-85-247.5T354 717q-152 0-231.5 100.5T43 1063zm41 0q0-131 69.5-218T354 758t204 88 73 217q0 145-69.5 229T354 1376q-135 0-202.5-85T84 1063zM180-70l975 1532h47L227-70h-47zm551 392q0 158 83 256t228 98q152 0 235-97.5t83-254.5q0-147-85-248T1042-25Q890-25 810.5 76T731 322zm41 0q0-131 69.5-218.5t201-87.5 204 88.5T1319 322q0 145-69.5 229T1042 635q-135 0-202.5-85T772 322z"/><glyph unicode="&amp;" horiz-adv-x="1175" d="M90 328q0 68 26.5 132T175 566t97.5 94.5T374 736l109 71-65 86-75 99q-28 38-52.5 94.5T266 1190q0 131 89 201.5t210 70.5q127 0 213-73.5t86-198.5q0-47-16.5-91t-35.5-74-60-67.5-64.5-56T611 846l-68-49 385-488q50 109 50 231 0 14-1 27h41q2-152-62-295L1171 0h-53L936 231Q791-35 508-35 344-35 217 65.5T90 328zm41 0q0-150 112.5-236T508 6q270 0 401 264L508 774q-2-2-49-31.5T404.5 709 355 676t-52-39-44-39-44-46-32.5-47-30-54.5-14.5-57-7-65.5zm176 866q0-66 42-134.5T518 827q4 2 41 27t46 32 43 31.5 46.5 38 39 39T771 1039l27 45q15 26 20 52.5t5 53.5q0 104-74.5 167.5T567 1421q-111 0-185.5-61.5T307 1194z"/><glyph unicode="'" horiz-adv-x="342" d="M152 1001v461h41v-461h-41z"/><glyph unicode="(" horiz-adv-x="454" d="M139 578q0 479 238 919h41q-238-440-238-919 0-504 240-940h-41Q256-122 197.5 99T139 578z"/><glyph unicode=")" horiz-adv-x="454" d="M35 1497h41q123-240 181-461t58-479q0-479-237-919H37Q275 78 274 557q1 504-239 940z"/><glyph unicode="*" horiz-adv-x="720" d="M66 1225l12 39 258-88v286h41v-286l270 88 8-39-266-88 170-224-33-24-170 221-172-213-32 27 180 213z"/><glyph unicode="+" horiz-adv-x="1228" d="M98 498v41h496v497h41V539h495v-41H635V0h-41v498H98z"/><glyph unicode="," horiz-adv-x="569" d="M215-203q49 49 49 203v201h41V0q0-180-90-244v41z"/><glyph unicode="-" horiz-adv-x="681" d="M162 528v41h358v-41H162z"/><glyph unicode="." horiz-adv-x="569" d="M264 0v201h41V0h-41z"/><glyph unicode="/" horiz-adv-x="681" d="M-14-35l669 1532h41L27-35h-41z"/><glyph unicode="0" horiz-adv-x="1138" d="M43 696.5q0 139.5 27.5 261t85 228 164 169 250 62.5 250-62.5 163.5-169 85-228 28-261-28-261.5-85-228.5-163.5-169-250-62.5-250 62.5-164 169-85 228.5T43 696.5zm41-.5q0-127 23.5-238.5t76-215T335 77.5 569.5 16 804 77.5t151.5 165 76 215T1055 696t-23.5 239-76 215T804 1314.5 569.5 1376 335 1314.5 183.5 1150t-76-215T84 696z"/><glyph unicode="1" horiz-adv-x="1138" d="M236 1094v41q121 41 199.5 97T606 1393h45V0h-41v1339h-4q-61-84-162.5-149T236 1094z"/><glyph unicode="2" horiz-adv-x="1138" d="M113 0q0 35 7 68.5t15 60.5 31.5 59.5 37 53T253 295t51 48 60.5 48 59.5 44 64 46l63 43q98 68 158.5 115t129 114.5T940 893t33 149q0 158-107.5 246T586 1376q-209 0-308.5-118.5T178 936h-41q2 231 116 356t333 125q186 0 307-97t121-278q0-82-33-157.5t-99.5-145-128-119T596 504l-110-76-93-68q-70-51-95-77l-66-72q-40-45-57-86t-21-84h897V0H113z"/><glyph unicode="3" horiz-adv-x="1138" d="M82 471h41q-2-25-2-48 0-183 113-288Q362 16 588 16q178 0 304 98.5T1018 385q0 170-107.5 254T618 729H518v41h100q154 0 263.5 74T991 1075q-2 156-116.5 228.5T596 1376q-205 0-320.5-105.5T162 961h-41q-2 221 125 338.5T596 1417q184 0 310-84t126-258q0-143-83-227t-216-96v-4q137-14 231.5-104.5T1059 385q0-186-137.5-298T588-25q-242 0-381 131Q81 225 81 428q0 21 1 43z"/><glyph unicode="4" horiz-adv-x="1138" d="M70 362v50l696 981h51V403h252v-41H817V0h-41v362H70zm41 41h665v932h-4z"/><glyph unicode="5" horiz-adv-x="1138" d="M76 446h41q0-10-1-19 0-187 115-296Q352 16 559 16q201 0 320.5 122T999 463q0 195-121.5 317.5T559 903q-125 0-229.5-55T170 690h-51l149 703h715v-41H301L174 756h4q115 188 381 188 213 0 347-135t134-346q0-221-133-354.5T559-25q-221 0-355 126Q76 221 76 427v19z"/><glyph unicode="6" horiz-adv-x="1138" d="M80 657q0 111 15.5 213.5t53 204 95 176T394 1371t210 46q176 0 292-99t138-253h-41q-20 90-63 154.5T829.5 1316 717 1362t-115 14q-119 0-210-52t-142-132-83-189.5T126 794q-8-81-8-168 0-19 1-38h4q31 150 160 250t295 100q188 0 334.5-137T1059 457q0-205-142.5-343.5T578-25q-133 0-241 64.5T172 195Q80 335 80 657zm57-200.5Q137 274 266 145T577.5 16 889 145t129 311.5T889 768 577.5 897 266 768 137 456.5z"/><glyph unicode="7" horiz-adv-x="1138" d="M125 1352v41h889v-56q-307-307-468-625.5T385 0h-41v18q0 713 625 1334H125z"/><glyph unicode="8" horiz-adv-x="1138" d="M63 389q0 160 95.5 259.5T420 764v4q-123 16-205 98t-82 199q0 178 121 265t315.5 87 315.5-87 121-265q0-117-82-199t-205-98v-4q166-16 261-115.5t95-259.5q0-205-143.5-309.5T569-25 206.5 79.5 63 389zm41 0q0-188 132.5-280.5t333-92.5T902 108.5 1034 389q0 186-130 269t-334.5 83-335-83T104 389zm70 676q0-137 120-210t275.5-73T845 855t120 210q0 164-113 237.5T569 1376t-282.5-73.5T174 1065z"/><glyph unicode="9" horiz-adv-x="1138" d="M80 936q0 205 142.5 343T561 1417q133 0 240.5-64.5T967 1198q94-141 94-463 0-139-26.5-266t-83-241.5T787.5 44 535-25q-176 0-292 99.5T104 328h41q20-90 63.5-154.5t101-96.5T422 30.5 537 16q119 0 210 52.5T889 201t83 189.5 41 208.5q8 81 7 167v39h-4q-31-150-160-250T561 455q-188 0-334.5 137T80 936zm41 0q0-182 129-311t311-129 311 129 129 311-129 311-311 129-311-129-129-311z"/><glyph unicode=":" horiz-adv-x="569" d="M264 0v201h41V0h-41zm0 852v201h41V852h-41z"/><glyph unicode=";" horiz-adv-x="569" d="M215-203q49 49 49 203v201h41V0q0-180-90-244v41zm49 1055v201h41V852h-41z"/><glyph unicode="&lt;" horiz-adv-x="1228" d="M94 494v49l1041 510v-43L131 518 1135 27v-43z"/><glyph unicode="=" horiz-adv-x="1228" d="M98 299v41h1032v-41H98zm0 397v41h1032v-41H98z"/><glyph unicode="&gt;" horiz-adv-x="1228" d="M94-16v43l1004 491L94 1010v43l1041-510v-49z"/><glyph unicode="?" d="M72 1010q-1 14-1 27 0 198 112 325 120 135 333 135 174 0 289-91t115-249q0-68-18.5-126T850 929t-58.5-71-60.5-57q-8-6-12-10-119-115-161-196t-42-222h-41q0 137 43 229t158 205q2 2 32.5 27.5t54 51T816 951t46.5 93.5T879 1157q0 141-100.5 220T516 1456q-199 0-305-122-99-113-99-296 0-14 1-28H72zM475 0v201h41V0h-41z"/><glyph unicode="@" horiz-adv-x="1638" d="M117 723q0 313 217 524t524 211q283 0 472-169 192-171 192-454 0-223-142-393-143-172-301-172-61 0-96 37-27 28-27 68 0 12 2 24h-4q-94-129-278-129-119 0-199 86t-80 211q0 131 58.5 265.5t174 230.5 253.5 96q98 0 177-47t103-127h4l50 135h43l-228-590q-33-84-33-136 0-83 84-83 135 0 266 159 132 161 132 377 0 248-175 408-177 162-448 162-297 0-498.5-202.5T158 723q0-334 201.5-520.5T858 16q180 0 337 90.5T1452 340h47q-100-164-276-264.5T858-25q-141 0-270 45.5T351.5 154t-171 235.5T117 723zm321-156q0-111 70-183.5T684 311q221 0 315 246l146 377q-27 98-102.5 141T874 1118q-180 0-308-181.5T438 567z"/><glyph unicode="A" horiz-adv-x="1177" d="M-25 0l594 1462h54L1200 0h-45L963 481H217L23 0h-48zm258 522h713l-348 899h-4z"/><glyph unicode="B" horiz-adv-x="1251" d="M96 1462h629q180 0 296-94t116-270q0-133-88-229.5T827 764v-4q150-4 252.5-102.5T1182 397q0-190-132-293.5T700 0H96v1462zm41-680h588q156 0 263.5 83t107.5 233q0 160-102.5 241.5T725 1421H137V782zm0-741h582q186 0 304 91t118 263q0 178-121 262t-295 84H137V41z"/><glyph unicode="C" horiz-adv-x="1402" d="M51 719q0 111 23.5 217t77 208.5 130 180.5T477 1450t262 47q137 0 252-48t183.5-122 107.5-152.5 41-150.5h-41q-14 170-164.5 301T739 1456q-139 0-251.5-48T303 1284t-121-175-69.5-196.5T92 719q0-295 168-504T713 6q254 0 410.5 156.5T1315 573h41q-39-276-207-442T713-35q-291 0-476.5 212T51 719z"/><glyph unicode="D" horiz-adv-x="1327" d="M111 1462h512q119 0 222-34.5t196.5-113.5 148.5-227.5 55-355.5q0-190-56-334.5T1034.5 168 816 42 559 0H111v1462zM152 41h417q276 0 455.5 176T1204 731q0 158-33.5 281t-89 198.5T947 1335t-159.5 67.5T612 1421H152V41z"/><glyph unicode="E" horiz-adv-x="1099" d="M111 0v1462h970v-41H152V782h874v-41H152V41h938V0H111z"/><glyph unicode="F" horiz-adv-x="985" d="M111 0v1462h901v-41H152V782h778v-41H152V0h-41z"/><glyph unicode="G" horiz-adv-x="1478" d="M66 731q0 330 185 548t501 218q244 0 407.5-133t198.5-358h-41q-39 207-189.5 328.5T752 1456q-297 0-471.5-208T106 731q0-313 170-519T758 6q246 0 413.5 160T1339 567v76H772v41h608V-2h-41v364h-4q-57-184-212.5-290.5T752-35q-326 0-506 217T66 731z"/><glyph unicode="H" horiz-adv-x="1327" d="M111 0v1462h41V782h1024v680h41V0h-41v741H152V0h-41z"/><glyph unicode="I" horiz-adv-x="262" d="M111 0v1462h41V0h-41z"/><glyph unicode="J" horiz-adv-x="948" d="M37 365v88h41v-88Q78 7 426 6q182 0 271 92t89 314v1050h41V381q0-416-401-416-199 0-294 109T37 365z"/><glyph unicode="K" horiz-adv-x="1214" d="M111 0v1462h41V573l1013 889h62L520 840 1268 0h-56L487 815 152 518V0h-41z"/><glyph unicode="L" horiz-adv-x="985" d="M111 0v1462h41V41h854V0H111z"/><glyph unicode="M" horiz-adv-x="1597" d="M111 0v1462h67L797 53h4l618 1409h68V0h-41v1411h-4L821 0h-45L156 1411h-4V0h-41z"/><glyph unicode="N" horiz-adv-x="1327" d="M111 0v1462h61L1171 51h5v1411h41V0h-62L156 1411h-4V0h-41z"/><glyph unicode="O" horiz-adv-x="1476" d="M66 731q0 328 179 547t494.5 219 494.5-219 179-547-179-547T739.5-35 245 184 66 731zm40 0q4-322 174.5-523.5T739.5 6 1198 208t174 523q-4 322-174 523.5T739.5 1456t-459-201.5T106 731z"/><glyph unicode="P" horiz-adv-x="1175" d="M111 0v1462h591q211 0 328-101t117-298q0-188-128-292.5T682 666H152V0h-41zm41 707h550q178 0 291 95t113 261q0 174-102.5 266T702 1421H152V707z"/><glyph unicode="Q" horiz-adv-x="1476" d="M66 731q0 328 179 547t494.5 219 494.5-219 179-547q0-373-217-586l236-161-21-29-242 164Q995-35 739-35q-315 0-494 219T66 731zm40 0q4-322 174.5-523.5T739 6q233 0 394 137L874 319l23 33 264-182q207 199 211 561-4 322-174 523.5T739.5 1456t-459-201.5T106 731z"/><glyph unicode="R" horiz-adv-x="1251" d="M111 0v1462h598q225 0 333.5-92t112.5-283v-13q0-136-78-231-82-99-235-132v-4q174-23 231-118t57-288q0-248 35-301h-45q-31 78-30 307 0 98-13.5 161.5t-53.5 117-119 77T702 686H152V0h-41zm41 1421V727h546q176 0 297 92 119 91 119 267 0 336-395 335H152z"/><glyph unicode="S" horiz-adv-x="1251" d="M70 485h41Q111 6 641 6q193 0 334 89t141 265q0 53-14.5 98.5t-32.5 77-56 58.5-68 43-82 32.5-82.5 24.5-90.5 22l-86 19q-229 53-305 90-186 90-186 295 0 104 44 181t118.5 118 158.5 59.5 178 18.5q231 0 368.5-105.5T1128 1053h-41q-14 403-475 403-84 0-159.5-16.5t-145-52T196 1283t-42-163q0-39 8-72.5t19.5-59 35-49.5 41.5-40 54-32.5 58.5-26T439 819l70-18q24-6 75-17.5t73-17.5q20-4 58-14l103-28q34-9 91.5-27.5t85-36 64.5-47 54.5-64.5 30.5-83 13-108q0-193-153.5-293T641-35Q377-35 221 93 69 218 70 472v13z"/><glyph unicode="T" d="M-35 1421v41h1094v-41H532V0h-40v1421H-35z"/><glyph unicode="U" horiz-adv-x="1294" d="M111 545v917h41V545Q152 6 647.5 6T1143 545v917h41V545q0-287-138.5-433.5T647-35 249 111.5 111 545z"/><glyph unicode="V" horiz-adv-x="1101" d="M-37 1462H4L557 53h4l537 1409h41L582 0h-45z"/><glyph unicode="W" horiz-adv-x="1781" d="M-20 1462h43L436 51h4l422 1411h60L1350 51h4l407 1411h41L1378 0h-55L893 1411h-4L467 0h-55z"/><glyph unicode="X" horiz-adv-x="1064" d="M-55 0l563 752-533 710h54l506-678 509 678h52L563 752 1120 0h-51L535 719-4 0h-51z"/><glyph unicode="Y" horiz-adv-x="1101" d="M-61 1462h51l561-803 563 803h49L571 616V0h-41v616z"/><glyph unicode="Z" d="M-39 0v55L983 1421H18v41h1006v-55L2 41h1038V0H-39z"/><glyph unicode="[" horiz-adv-x="454" d="M197-362v1859h231v-41H238V-322h190v-40H197z"/><glyph unicode="\" horiz-adv-x="681" d="M-14 1497h41L696-35h-41z"/><glyph unicode="]" horiz-adv-x="454" d="M27-322h190v1778H27v41h231V-362H27v40z"/><glyph unicode="^" horiz-adv-x="1228" d="M121 465l473 928h41l473-928h-41l-453 887-452-887h-41z"/><glyph unicode="_" d="M0-154h1024v-102H0v102z"/><glyph unicode="`" horiz-adv-x="266" d="M-78 1497h60l256-295h-31z"/><glyph unicode="a" horiz-adv-x="985" d="M45 260q0 92 29.5 155.5t87 95.5 113 45T408 575q256 14 309 31 92 25 100 113 2 12 2 26 0 57-9 100.5T772 937t-94.5 73.5T512 1036q-164 0-257-81T152 727h-41q8 156 110.5 253t290.5 97q340 0 348-301V106q0-37 21.5-54T933 37l60 4V0q-27-1-53-1h-27q-39 1-66.5 26.5T819 102v138h-4Q782 131 667.5 53T397-25q-160 0-256 74T45 260zm41 0q0-102 73.5-173T393 16q197 0 311.5 121T819 424v194h-4q-16-23-45-38t-77-22-83-11-103.5-7-98.5-5q-72-6-122-17.5t-99.5-39-75-83T86 260z"/><glyph unicode="b" horiz-adv-x="1099" d="M113 0v1462h41V758h4q37 147 147.5 233t274.5 86q209 0 328.5-159.5T1028 524q0-242-122-395.5T580-25q-158 0-269.5 88.5T158 295h-4V0h-41zm41 524q0-213 114.5-360.5T580 16q195 0 301 146.5T987 524q0 129-40 242T812 957.5 580 1036q-195 0-310.5-135T154 524z"/><glyph unicode="c" d="M63 504q0 246 126 409.5T555 1077q154 0 266.5-91T952 733h-41q-25 147-122 225t-234 78q-121 0-211-47T204 862t-75-170-25-188q0-205 113-346.5T530 16q158 0 267.5 93.5T920 358h41Q945 182 827 78.5T530-25q-217 0-342 152T63 504z"/><glyph unicode="d" horiz-adv-x="1099" d="M57 524q0 233 120 393t329 160q164 0 274.5-86T928 758h4v704h41V0h-41v295h-4Q887 152 775.5 63.5T506-25q-205 0-327 153.5T57 524zm41 0q0-215 106.5-361.5T506 16q197 0 311.5 147.5T932 524q0 242-116 377t-310 135q-137 0-232.5-78.5T138 766 98 524z"/><glyph unicode="e" d="M51 526q0 252 136.5 401.5T512 1077q158 0 266.5-81T933 792q41-109 41-239 0-17-1-35H92q4-229 103.5-365.5T508 16q166 0 275.5 90.5T920 365h41Q941 185 817.5 80T512-25h-6q-229 0-341 150Q51 276 51 526zm41 33h840q2 203-108.5 340T516 1036q-174 0-294-130T92 559z"/><glyph unicode="f" horiz-adv-x="417" d="M-2 1012v41h180v233q0 59 18.5 97t53.5 54.5 63.5 20.5 71.5 4q16 0 32.5-1t33-4 22.5-3v-41q-51 8-96 8-94 0-126-33.5T219 1272v-219h227v-41H219V0h-41v1012H-2z"/><glyph unicode="g" horiz-adv-x="1062" d="M57 561q0 223 119 369.5T510 1077q147 0 258-87t141-218h4v281h41V35q0-211-113.5-316.5T516-387q-172 0-284.5 82T115-55h41q6-147 105-219t253-72q399 0 399 381v317h-4q-31-135-151.5-215T496 57q-209 0-324 144.5T57 561zm41 0q0-203 104.5-333T494 98q197 0 307 132.5T911 568q0 190-105 328-108 140-296 140-197 0-304.5-136T98 561z"/><glyph unicode="h" d="M113 1462h41V793h4q31 127 130 205.5t249 78.5q168 0 271-100t103-279V0h-41v692q0 172-94 258t-239 86q-180 0-281.5-127T154 596V0h-41v1462z"/><glyph unicode="i" horiz-adv-x="266" d="M113 0v1053h41V0h-41zm0 1255v207h41v-207h-41z"/><glyph unicode="j" horiz-adv-x="266" d="M-100-322q131 0 172 30t41 153v1192h41V-154q0-135-57.5-170.5T-100-362v40zm213 1577v207h41v-207h-41z"/><glyph unicode="k" horiz-adv-x="909" d="M113 0v1462h41V449l727 604h59L457 651 975 0h-55L426 623 154 397V0h-41z"/><glyph unicode="l" horiz-adv-x="266" d="M113 0v1462h41V0h-41z"/><glyph unicode="m" horiz-adv-x="1593" d="M113 0v1053h41V793h4q31 123 123 203.5t213 80.5q123 2 205.5-63.5T809 831h4q31 111 123 178.5t211 67.5q180 0 257-100t77-285V0h-41v692q0 170-65.5 257t-227.5 87q-150 0-239-107.5T817 668V0h-41v676q2 166-59.5 263T494 1036q-152 0-246-129t-94-311V0h-41z"/><glyph unicode="n" d="M113 1053h41V793h4q31 127 130 205.5t249 78.5q168 0 271-100t103-279V0h-41v692q0 172-94 258t-239 86q-180 0-281.5-127T154 596V0h-41v1053z"/><glyph unicode="o" horiz-adv-x="1062" d="M57 526.5q0 229.5 127 390T532 1077q219 0 346.5-161.5T1006 526q0-229-127-390T530.5-25 183 136 57 526.5zm41-.5q0-213 116-361.5T532 16q201 0 317 149.5T965 526q0 209-116 359.5T532 1036q-203 0-318.5-149.5T98 526z"/><glyph unicode="p" horiz-adv-x="1099" d="M113-362v1415h41V758h4q41 143 152.5 231t269.5 88q205 0 326.5-153.5T1028 528q0-233-120-393T580-25q-164 0-274.5 86T158 295h-4v-657h-41zm41 890q0-242 115.5-377T580 16q137 0 232 79t135 191.5T987 528q0 215-106.5 361.5T580 1036q-197 0-311.5-147.5T154 528z"/><glyph unicode="q" horiz-adv-x="1099" d="M57 528q0 242 122 395.5T506 1077q158 0 269.5-88T928 758h4v295h41V-362h-41v657h-4Q891 148 780.5 61.5T506-25q-209 0-329 160T57 528zm41 0q0-129 40-241.5T273.5 95 506 16q195 0 310.5 135.5T932 528q0 213-115 360.5T506 1036q-195 0-301.5-146.5T98 528z"/><glyph unicode="r" horiz-adv-x="530" d="M113 0v1053h41V793h4q33 129 135 209 95 75 254 76 12 0 24-1v-41q-15 1-28 1-182 0-282-122-108-131-107-319V0h-41z"/><glyph unicode="s" horiz-adv-x="948" d="M61 360h41q0-172 99.5-258T487 16q82 0 156 23.5t129 82T827 264q0 27-6 51.5t-13 43-26 35.5l-29 29q-11 11-40 24.5L671.5 467l-49 16.5-49 14.5-55.5 14-53 12q-166 41-236 72-127 55-127 217 0 102 88.5 183t268.5 81 280.5-83T840 741h-41q0 152-90.5 223.5T459 1036q-102 0-172-27.5T189.5 937t-37-72.5T143 813q0-137 117-184 35-14 270-78 57-14 83-21.5t75-25 73.5-35.5 53.5-47 41-67 12-87q0-100-58-168.5T669 3 487-25Q61-25 61 360z"/><glyph unicode="t" horiz-adv-x="493" d="M-10 1012v41h194v331h41v-331h238v-41H225V205q0-55 12.5-91t36-50.5 43-18.5 50.5-4q72 0 90 6V6q-74-6-101-6-172 0-172 197v815H-10z"/><glyph unicode="u" d="M113 354v699h41V360q0-172 94-258t239-86q180 0 281.5 127T870 457v596h41V0h-41v260h-4Q835 133 736 54T487-25Q319-25 216 75.5T113 354z"/><glyph unicode="v" horiz-adv-x="833" d="M-25 1053h50L432 41h4l377 1012h45L461 0h-51z"/><glyph unicode="w" horiz-adv-x="1402" d="M-16 1053h41L338 41h4l326 1012h63L1055 41h4l319 1012h41L1083 0h-53L702 1012h-4L369 0h-58z"/><glyph unicode="x" horiz-adv-x="833" d="M-31 0l422 545L8 1053h53l355-478 362 478h49L442 545 864 0h-51L416 514 20 0h-51z"/><glyph unicode="y" horiz-adv-x="833" d="M-25 1053h45L438 55l377 998h43L373-215q-20-51-47-83t-68-45-72.5-16-91.5-3v40h18q99 0 144 22 49 24 84 114l76 196z"/><glyph unicode="z" horiz-adv-x="833" d="M10 0v51l738 961H66v41h725v-52L53 41h770V0H10z"/><glyph unicode="{" horiz-adv-x="681" d="M174 553v41q63 10 105.5 111.5T322 936v338q0 121 32.5 172t116.5 51h102v-41h-98q-61 0-87-47t-26-172V901q0-104-37.5-202.5T215 569q68-33 107.5-125T362 233V-98q0-131 26-177.5t87-46.5h98v-40H471q-84 0-116.5 53T322-135v334q0 135-31 217T174 553z"/><glyph unicode="|" horiz-adv-x="454" d="M207-438v2048h41V-438h-41z"/><glyph unicode="}" horiz-adv-x="681" d="M109 1456v41h102q84 0 116.5-53t32.5-174V936q0-135 31-217t117-137v-41q-63-10-105.5-111.5T360 199v-338q0-121-32.5-172T211-362H109v40h98q61 0 86.5 47.5T319-102v335q0 104 38 203t110 129q-68 33-108 125t-40 211v332q0 131-25.5 177t-86.5 46h-98z"/><glyph unicode="~" horiz-adv-x="1228" d="M158 432q94 178 241 178 4 0 9 1 80 0 231-70 168-72 211-72 39 0 75 24.5t55 50 50 72.5l41-12q-51-82-101-129t-122-47q-25 0-52.5 7t-44 13.5-53 22.5-49.5 23q-6 2-34.5 16T575 528l-36 15q-27 10-44.5 14t-43 8-52.5 4q-115 0-200-149z"/><glyph unicode="¡" horiz-adv-x="378" d="M170-362V737h41V-362h-41zm0 1271v201h41V909h-41z"/><glyph unicode="¢" horiz-adv-x="1138" d="M121 528q0 217 115.5 378T557 1075v180h41v-180q166-4 278.5-92T1008 733h-41q-23 145-121 221t-248 80V16h10q150 0 251.5 96.5T977 358h41Q998 180 883 78.5T598-25v-223h-41v223q-209 8-322.5 168T121 528zm41 0q0-205 102.5-354T557 16v1018q-190-8-292.5-156.5T162 528z"/><glyph unicode="£" horiz-adv-x="1138" d="M80 6q242 205 242 422 0 168-66 279H100v41h136q-8 18-43 81.5T141.5 928t-33 89-16.5 99q0 184 134 282.5t329 98.5q238 0 368-139 108-116 108-298 0-37-5-77h-41q3 33 3 64 0 179-101 285-119 124-332 124-176 0-299-85t-123-255q0-45 17.5-98t35-90 51.5-98l46-82h323v-41H301q61-109 61-279 0-219-202-391l4-4q100 76 209 76 59 0 202-50Q710 6 772 6q90 0 156.5 40T1085 176l27-29Q1024 47 946 6T772-35q-76 0-205 51-154 51-194 52-131 0-256-103z"/><glyph unicode="¤" horiz-adv-x="1138" d="M61 696q4 201 136 344L80 1157l29 29 116-117q147 135 344 135 201 0 344-135l117 117 29-29-117-117q135-143 135-344 0-197-135-344l117-116-29-29-117 117Q770 193 569 188q-197 0-344 136L109 207l-29 29 117 116Q61 499 61 696zm41 .5q0-192.5 137.5-330t330-137.5T899 366.5t137 330T899 1026t-329.5 137-330-137T102 696.5z"/><glyph unicode="¥" horiz-adv-x="1138" d="M43 1462h45l479-784h4l480 784h45L610 666h279v-41H588V416h301v-41H588V0h-41v375H246v41h301v209H246v41h282z"/><glyph unicode="¦" horiz-adv-x="454" d="M207-182v512h41v-512h-41zm0 1024v512h41V842h-41z"/><glyph unicode="§" horiz-adv-x="1138" d="M117 717q0 92 66.5 172T340 1001q-109 92-109 224 0 80 34 138t88.5 85 103.5 38 98 11q160 0 255-103.5t95-275.5h-41q-4 160-84 249t-229 89q-63 0-122.5-18.5T318 1363q-46-52-46-130v-12q4-121 117-203 55-39 143.5-88T666 852q217-139 286.5-226t69.5-208q0-100-80-178T782 139Q904 38 904-92q0-10-1-21-10-135-104-204.5T569-387q-174 0-268 104-90 100-90 278v15h41q-2-166 74.5-260T569-346h8q138 0 210 74 75 76 75 159 0 86-29.5 137.5T698 152q-49 35-179 115.5T338 383q-135 90-178 164t-43 170zm41-17q0-152 204-284 354-227 381-248 80 18 159 86t79 166q0 104-67.5 185T643 817q-37 23-139.5 81T377 973q-41-12-85-39t-89-90.5T158 700z"/><glyph unicode="¨" horiz-adv-x="266" d="M-47 1208v166h41v-166h-41zm319 0v166h41v-166h-41z"/><glyph unicode="©" horiz-adv-x="1638" d="M53 731.5Q53 1049 277.5 1273t542 224 541.5-224 224-541.5-224-542T819.5-35t-542 224.5T53 731.5zm41-.5q0-301 212-513T819 6t513 212 212 513-212 513-513 212-513-212T94 731zm297-12q0 205 120 336t325 131q150 0 255-82t123-227h-40q-18 129-113.5 198.5T836 1145q-188 0-296-119T432 721t111.5-310T842 287q117 0 209 74.5T1174 565h40q-33-143-134-231t-238-88q-203 0-327 135T391 719z"/><glyph unicode="ª" horiz-adv-x="614" d="M0 924q0 109 67.5 147.5T252 1118q18 0 53 1t53.5 2 45 4 42 9.5 31 15.5 21.5 24.5 6 35.5q0 88-48 127t-151 39q-199 0-221-172H43q23 213 262 213 233 0 240-182V846q0-23 10-32t25.5-9 33.5 2v-41q-33-2-52 0t-38.5 17.5T504 829v84h-4v-14q-23-70-93.5-108.5T229 752q-98 0-163.5 43T0 924zm41 0q0-68 54.5-99.5T229 793q127 0 201 67.5t74 171.5v99h-4q-10-14-27.5-23.5t-44.5-15-50.5-7.5-62.5-4-63-4q-100-10-155.5-40.5T41 924z"/><glyph unicode="«" horiz-adv-x="720" d="M135 532v33l211 285v-72L176 549l170-230v-71zm191 0v33l211 285v-72L367 549l170-230v-71z"/><glyph unicode="¬" horiz-adv-x="1228" d="M98 696v41h1032V190h-40v506H98z"/><glyph unicode="­" horiz-adv-x="681" d="M162 528v41h358v-41H162z"/><glyph unicode="®" horiz-adv-x="1638" d="M53 731.5Q53 1049 277.5 1273t542 224 541.5-224 224-541.5-224-542T819.5-35t-542 224.5T53 731.5zm41-.5q0-301 212-513T819 6t513 212 212 513-212 513-513 212-513-212T94 731zm467-455v881h289q291 0 291-237 0-106-64.5-164T911 690l271-414h-52L866 686q-20-2-63-2H602V276h-41zm41 449h213q285 0 285 195 0 197-254 196H602V725z"/><glyph unicode="¯" horiz-adv-x="266" d="M-104 1286v41h475v-41h-475z"/><glyph unicode="°" horiz-adv-x="819" d="M117 1124q0 121 85 207t207.5 86 207.5-86 85-207q0-123-85-210t-207.5-87T202 913t-85 211zm41 0q0-109 74.5-182.5T410 868q106 0 179 74t73 182q0 104-72 178t-180 74q-100 0-176-77t-76-175z"/><glyph unicode="±" horiz-adv-x="1228" d="M98 0v41h1032V0H98zm0 590v41h496v405h41V631h495v-41H635V184h-41v406H98z"/><glyph unicode="²" horiz-adv-x="681" d="M37 567q0 29 7 55.5t16.5 47T92 715l35 38q12 13 45 37.5l46 34 53 35 51 31.5q86 57 132 93t87 96.5 41 123.5q0 84-65.5 128T344 1376q-131 0-191.5-63.5T94 1128H53q4 143 72 216t219 73q123 0 201-53t78-160q0-88-55.5-161.5T352 864q-129-82-195.5-140T84 608h563v-41H37z"/><glyph unicode="³" horiz-adv-x="681" d="M23 850h40q-1-14-1-28 0-105 71-163 80-66 219-65 111 0 188.5 54T618 799q0 104-74.5 150T354 995h-49v43h53q104 0 174 42t70 132q0 164-246 164-266 0-266-231H49q-2 129 83 200.5t226 71.5q121 0 203-47t82-158q0-86-59.5-140T434 1018v-4q98-6 161.5-60.5T659 799q0-113-89-179.5T354 553q-160 0-250 78-83 71-82 196 0 11 1 23z"/><glyph unicode="´" horiz-adv-x="266" d="M20 1202l271 295h59L51 1202H20z"/><glyph unicode="µ" horiz-adv-x="1138" d="M170-362v1415h39V360q0-172 94-258t240-86q180 0 281.5 127T926 457v596h41V0h-41v260h-4Q893 133 792.5 54T543-25q-244 0-328 191h-4v-528h-41z"/><glyph unicode="¶" horiz-adv-x="1228" d="M135 1061q0 193 120 297t337 104h414V-287h-41v1708H631V-287h-41v959q-199 0-327 113.5T135 1061z"/><glyph unicode="·" horiz-adv-x="569" d="M219 696.5q0 28.5 19.5 47t46 18.5 46-18.5 19.5-47-19.5-47-46-18.5-46 18.5-19.5 47z"/><glyph unicode="¸" horiz-adv-x="266" d="M-51-340l18 39q94-33 150-33 160 0 159 109 0 39-36.5 60.5T164-143q-66 0-111-27l-30 20L139 0h41L96-115q4 0 24.5 6.5T164-102q66 0 109.5-30t43.5-93q0-150-200-150-57 0-168 35z"/><glyph unicode="¹" horiz-adv-x="681" d="M127 1208v39q78 25 129 58.5t111 97.5h45V567h-41v789h-4q-72-101-240-148z"/><glyph unicode="º" horiz-adv-x="614" d="M0 1087q0 137 83 233.5t226.5 96.5 225-96 81.5-234q0-139-81.5-237T307 752q-143 0-225 98T0 1087zm41 0q0-119 73.5-206.5T309 793t193.5 89 72.5 205q0 115-72.5 202T309 1376t-194.5-87T41 1087z"/><glyph unicode="»" horiz-adv-x="720" d="M184 248v71l170 230-170 229v72l211-285v-33zm191 0v71l170 230-170 229v72l211-285v-33z"/><glyph unicode="¼" horiz-adv-x="1708" d="M209 1208v39q78 25 129 58.5t111 97.5h45V567h-41v789h-4q-72-101-240-148zM295-70l975 1532h47L342-70h-47zm553 279v51l442 576h51V250h156v-41h-156V0h-41v209H848zm43 41h409v530l-4-4z"/><glyph unicode="½" horiz-adv-x="1708" d="M133 1208v39q78 25 129 58.5t111 97.5h45V567h-41v789h-4q-72-101-240-148zM199-70l975 1532h47L246-70h-47zM967 0q0 29 7 55.5t16 47 32 44.5l35 38q12 13 45 38t46 34 53 34.5 50 32.5q86 57 132.5 93t87 96 40.5 124q0 84-65.5 128T1274 809q-131 0-191.5-63.5T1024 561h-41q4 143 71.5 216t219.5 73q123 0 200.5-53.5T1552 637q0-88-55-162t-215-178q-129-82-195.5-140.5T1014 41h563V0H967z"/><glyph unicode="¾" horiz-adv-x="1708" d="M113 850h41l-2-28q0-105 71-163 80-66 219-65 111 0 189 54t78 151q0 104-75 151t-190 47q-33 0-49-2v43h54q104 0 173.5 42t69.5 132q0 164-246 164-266 0-266-231h-41q-2 129 83 200.5t227 71.5q121 0 202.5-47t81.5-158q0-86-59.5-140T524 1018v-4q98-6 162-60.5T750 799q0-113-89.5-179.5T444 553q-160 0-249 78-83 71-83 196 0 11 1 23zM406-70l974 1532h47L453-70h-47zm540 279v51l443 576h51V250h155v-41h-155V0h-41v209H946zm43 41h410v530l-4-4z"/><glyph unicode="¿" d="M104-47q0 72 18.5 131T182 194.5t57.5 68T303 319q119 115 161 196t42 222h41q0-137-43-229T346 303q-2-2-32.5-27.5t-53-51T208 159t-46.5-93.5T145-47q0-141 100.5-220T508-346q199 0 305 122 99 113 99 296 0 14-1 28h41q1-14 1-27 0-198-112-325-120-135-333-135-174 0-289 91T104-47zm404 956v201h41V909h-41z"/><glyph unicode="À" horiz-adv-x="1177" d="M-25 0l594 1462h54L1200 0h-45L963 481H217L23 0h-48zm258 522h713l-348 899h-4zm146 1340h59l256-295h-30z"/><glyph unicode="Á" horiz-adv-x="1177" d="M-25 0l594 1462h54L1200 0h-45L963 481H217L23 0h-48zm258 522h713l-348 899h-4zm244 1045l271 295h59l-299-295h-31z"/><glyph unicode="Â" horiz-adv-x="1177" d="M-25 0l594 1462h54L1200 0h-45L963 481H217L23 0h-48zm258 522h713l-348 899h-4zm109 1055l231 285h31l234-285h-41l-211 252-203-252h-41z"/><glyph unicode="Ã" horiz-adv-x="1177" d="M-25 0l594 1462h54L1200 0h-45L963 481H217L23 0h-48zm258 522h713l-348 899h-4zm86 1075q0 57 43.5 109.5T459 1759q49 0 135-59.5t125-59.5q45 0 72.5 34t27.5 79h41q0-63-37-108.5T719 1599q-53 0-135 59.5T459 1718q-41 0-70-40t-29-81h-41z"/><glyph unicode="Ä" horiz-adv-x="1177" d="M-25 0l594 1462h54L1200 0h-45L963 481H217L23 0h-48zm258 522h713l-348 899h-4zm177 1051v166h41v-166h-41zm319 0v166h41v-166h-41z"/><glyph unicode="Å" horiz-adv-x="1177" d="M-25 0l594 1462h54L1200 0h-45L963 481H217L23 0h-48zm258 522h713l-348 899h-4zm177 1166q0 72 54 126t126 54 126-54.5 54-125.5q0-74-53-127.5T590 1507q-72 0-126 53.5T410 1688zm41-.5q0-57.5 40.5-98.5t98-41 98.5 41 41 98.5-41 98.5-98.5 41-98-41-40.5-98.5z"/><glyph unicode="Æ" horiz-adv-x="1744" d="M-25 0l775 1462h960v-41H907V782h738v-41H907V41h803V0H866v561H317L20 0h-45zm363 602h528v823h-96z"/><glyph unicode="Ç" horiz-adv-x="1402" d="M51 719q0 111 23.5 217t77 208.5 130 180.5T477 1450t262 47q137 0 252-48t183.5-122 107.5-152.5 41-150.5h-41q-14 170-164.5 301T739 1456q-139 0-251.5-48T303 1284t-121-175-69.5-196.5T92 719q0-295 168-504T713 6q254 0 410.5 156.5T1315 573h41q-39-274-204-440T723-35l-59-80q4 0 24.5 6.5T731-102q66 0 110-30t44-93q0-150-201-150-57 0-168 35l19 39q94-33 149-33 160 0 160 109 0 39-37 60.5T731-143q-66 0-110-27l-31 20 90 117Q401-21 226 189.5T51 719z"/><glyph unicode="È" horiz-adv-x="1099" d="M111 0v1462h970v-41H152V782h874v-41H152V41h938V0H111zm229 1862h59l256-295h-30z"/><glyph unicode="É" horiz-adv-x="1099" d="M111 0v1462h970v-41H152V782h874v-41H152V41h938V0H111zm327 1567l271 295h59l-299-295h-31z"/><glyph unicode="Ê" horiz-adv-x="1099" d="M111 0v1462h970v-41H152V782h874v-41H152V41h938V0H111zm192 1577l232 285h30l234-285h-41l-211 252-203-252h-41z"/><glyph unicode="Ë" horiz-adv-x="1099" d="M111 0v1462h970v-41H152V782h874v-41H152V41h938V0H111zm260 1573v166h41v-166h-41zm319 0v166h41v-166h-41z"/><glyph unicode="Ì" horiz-adv-x="262" d="M-80 1862h60l256-295h-31zM111 0v1462h41V0h-41z"/><glyph unicode="Í" horiz-adv-x="262" d="M18 1567l271 295h59L49 1567H18zM111 0v1462h41V0h-41z"/><glyph unicode="Î" horiz-adv-x="262" d="M-117 1577l232 285h30l234-285h-41l-211 252-203-252h-41zM111 0v1462h41V0h-41z"/><glyph unicode="Ï" horiz-adv-x="262" d="M-49 1573v166h41v-166h-41zM111 0v1462h41V0h-41zm159 1573v166h41v-166h-41z"/><glyph unicode="Ð" horiz-adv-x="1327" d="M-20 741v41h131v680h512q119 0 222-34.5t196.5-113.5 148.5-227.5 55-355.5q0-190-56-334.5T1034.5 168 816 42 559 0H111v741H-20zM152 41h417q276 0 455.5 176T1204 731q0 158-33.5 281t-89 198.5T947 1335t-159.5 67.5T612 1421H152V782h608v-41H152V41z"/><glyph unicode="Ñ" horiz-adv-x="1327" d="M111 0v1462h61L1171 51h5v1411h41V0h-62L156 1411h-4V0h-41zm282 1597q0 57 43 109.5t96 52.5q49 0 135.5-59.5T793 1640q45 0 72.5 34t27.5 79h41q0-63-37-108.5T793 1599q-53 0-135.5 59.5T532 1718q-41 0-69.5-40t-28.5-81h-41z"/><glyph unicode="Ò" horiz-adv-x="1476" d="M66 731q0 328 179 547t494.5 219 494.5-219 179-547-179-547T739.5-35 245 184 66 731zm40 0q4-322 174.5-523.5T739.5 6 1198 208t174 523q-4 322-174 523.5T739.5 1456t-459-201.5T106 731zm422 1131h60l256-295h-31z"/><glyph unicode="Ó" horiz-adv-x="1476" d="M66 731q0 328 179 547t494.5 219 494.5-219 179-547-179-547T739.5-35 245 184 66 731zm40 0q4-322 174.5-523.5T739.5 6 1198 208t174 523q-4 322-174 523.5T739.5 1456t-459-201.5T106 731zm521 836l270 295h59l-299-295h-30z"/><glyph unicode="Ô" horiz-adv-x="1476" d="M66 731q0 328 179 547t494.5 219 494.5-219 179-547-179-547T739.5-35 245 184 66 731zm40 0q4-322 174.5-523.5T739.5 6 1198 208t174 523q-4 322-174 523.5T739.5 1456t-459-201.5T106 731zm386 846l231 285h31l233-285h-41l-211 252-203-252h-40z"/><glyph unicode="Õ" horiz-adv-x="1476" d="M66 731q0 328 179 547t494.5 219 494.5-219 179-547-179-547T739.5-35 245 184 66 731zm40 0q4-322 174.5-523.5T739.5 6 1198 208t174 523q-4 322-174 523.5T739.5 1456t-459-201.5T106 731zm363 866q0 57 43 109.5t96 52.5q49 0 135-59.5t125-59.5q45 0 73 34t28 79h41q0-63-37-108.5T868 1599q-53 0-135 59.5T608 1718q-41 0-69.5-40t-28.5-81h-41z"/><glyph unicode="Ö" horiz-adv-x="1476" d="M66 731q0 328 179 547t494.5 219 494.5-219 179-547-179-547T739.5-35 245 184 66 731zm40 0q4-322 174.5-523.5T739.5 6 1198 208t174 523q-4 322-174 523.5T739.5 1456t-459-201.5T106 731zm453 842v166h41v-166h-41zm320 0v166h41v-166h-41z"/><glyph unicode="×" horiz-adv-x="1228" d="M197 129l389 389-389 389 28 27 387-391 392 391 28-27-391-389 391-389-28-29-392 392-387-392z"/><glyph unicode="Ø" horiz-adv-x="1476" d="M66 731q0 328 179 547t494 219q297 0 480-203l120 133 31-24-125-139q168-209 168-533 0-328-179-547T739-35q-301 0-481 207L113 10 82 35l149 166Q66 409 66 731zm40 0q4-307 154-498l930 1031q-172 193-451 192-289 0-459-201.5T106 731zm181-528Q455 6 739 6q289 0 459 202t174 523q-4 309-155 500z"/><glyph unicode="Ù" horiz-adv-x="1294" d="M111 545v917h41V545Q152 6 647.5 6T1143 545v917h41V545q0-287-138.5-433.5T647-35 249 111.5 111 545zm325 1317h60l256-295h-31z"/><glyph unicode="Ú" horiz-adv-x="1294" d="M111 545v917h41V545Q152 6 647.5 6T1143 545v917h41V545q0-287-138.5-433.5T647-35 249 111.5 111 545zm424 1022l270 295h59l-299-295h-30z"/><glyph unicode="Û" horiz-adv-x="1294" d="M111 545v917h41V545Q152 6 647.5 6T1143 545v917h41V545q0-287-138.5-433.5T647-35 249 111.5 111 545zm288 1032l232 285h31l233-285h-41l-211 252-203-252h-41z"/><glyph unicode="Ü" horiz-adv-x="1294" d="M111 545v917h41V545Q152 6 647.5 6T1143 545v917h41V545q0-287-138.5-433.5T647-35 249 111.5 111 545zm356 1028v166h41v-166h-41zm319 0v166h41v-166h-41z"/><glyph unicode="Ý" horiz-adv-x="1101" d="M-61 1462h51l561-803 563 803h49L571 616V0h-41v616zm499 150l271 295h59l-299-295h-31z"/><glyph unicode="Þ" horiz-adv-x="1175" d="M111 0v1462h41v-254h550q211 0 328-101t117-298q0-188-128-292.5T682 412H152V0h-41zm41 453h550q178 0 291 95t113 261q0 174-102.5 266T702 1167H152V453z"/><glyph unicode="ß" horiz-adv-x="985" d="M113 0v1139q0 180 104.5 264t255.5 84q156 0 266.5-92T850 1149q0-131-66.5-220T590 819v-4q170-14 253-115.5T926 430q0-213-119-327Q698-1 458-1q-22 0-44 1v41q26-1 51-1 420 0 420 390 0 111-34 184.5T750.5 726 604 778.5 414 793v41q9 0 18-1 162 0 266 71 111 75 111 245 0 135-96.5 216T473 1446q-49 0-95-10.5t-101.5-39-89-97T154 1133V0h-41z"/><glyph unicode="à" horiz-adv-x="985" d="M45 260q0 92 29.5 155.5t87 95.5 113 45T408 575q256 14 309 31 92 25 100 113 2 12 2 26 0 57-9 100.5T772 937t-94.5 73.5T512 1036q-164 0-257-81T152 727h-41q8 156 110.5 253t290.5 97q340 0 348-301V106q0-37 21.5-54T933 37l60 4V0q-27-1-53-1h-27q-39 1-66.5 26.5T819 102v138h-4Q782 131 667.5 53T397-25q-160 0-256 74T45 260zm41 0q0-102 73.5-173T393 16q197 0 311.5 121T819 424v194h-4q-16-23-45-38t-77-22-83-11-103.5-7-98.5-5q-72-6-122-17.5t-99.5-39-75-83T86 260zm197 1192h59l256-295h-31z"/><glyph unicode="á" horiz-adv-x="985" d="M45 260q0 92 29.5 155.5t87 95.5 113 45T408 575q256 14 309 31 92 25 100 113 2 12 2 26 0 57-9 100.5T772 937t-94.5 73.5T512 1036q-164 0-257-81T152 727h-41q8 156 110.5 253t290.5 97q340 0 348-301V106q0-37 21.5-54T933 37l60 4V0q-27-1-53-1h-27q-39 1-66.5 26.5T819 102v138h-4Q782 131 667.5 53T397-25q-160 0-256 74T45 260zm41 0q0-102 73.5-173T393 16q197 0 311.5 121T819 424v194h-4q-16-23-45-38t-77-22-83-11-103.5-7-98.5-5q-72-6-122-17.5t-99.5-39-75-83T86 260zm295 897l270 295h60l-299-295h-31z"/><glyph unicode="â" horiz-adv-x="985" d="M45 260q0 92 29.5 155.5t87 95.5 113 45T408 575q256 14 309 31 92 25 100 113 2 12 2 26 0 57-9 100.5T772 937t-94.5 73.5T512 1036q-164 0-257-81T152 727h-41q8 156 110.5 253t290.5 97q340 0 348-301V106q0-37 21.5-54T933 37l60 4V0q-27-1-53-1h-27q-39 1-66.5 26.5T819 102v138h-4Q782 131 667.5 53T397-25q-160 0-256 74T45 260zm41 0q0-102 73.5-173T393 16q197 0 311.5 121T819 424v194h-4q-16-23-45-38t-77-22-83-11-103.5-7-98.5-5q-72-6-122-17.5t-99.5-39-75-83T86 260zm160 907l231 285h31l233-285h-41l-211 252-202-252h-41z"/><glyph unicode="ã" horiz-adv-x="985" d="M45 260q0 92 29.5 155.5t87 95.5 113 45T408 575q256 14 309 31 92 25 100 113 2 12 2 26 0 57-9 100.5T772 937t-94.5 73.5T512 1036q-164 0-257-81T152 727h-41q8 156 110.5 253t290.5 97q340 0 348-301V106q0-37 21.5-54T933 37l60 4V0q-27-1-53-1h-27q-39 1-66.5 26.5T819 102v138h-4Q782 131 667.5 53T397-25q-160 0-256 74T45 260zm41 0q0-102 73.5-173T393 16q197 0 311.5 121T819 424v194h-4q-16-23-45-38t-77-22-83-11-103.5-7-98.5-5q-72-6-122-17.5t-99.5-39-75-83T86 260zm137 928q0 57 43 109.5t96 52.5q49 0 135.5-59.5T623 1231q45 0 72.5 33.5T723 1343h41q0-63-37-108t-104-45q-53 0-135.5 59.5T362 1309q-41 0-69.5-40t-28.5-81h-41z"/><glyph unicode="ä" horiz-adv-x="985" d="M45 260q0 92 29.5 155.5t87 95.5 113 45T408 575q256 14 309 31 92 25 100 113 2 12 2 26 0 57-9 100.5T772 937t-94.5 73.5T512 1036q-164 0-257-81T152 727h-41q8 156 110.5 253t290.5 97q340 0 348-301V106q0-37 21.5-54T933 37l60 4V0q-27-1-53-1h-27q-39 1-66.5 26.5T819 102v138h-4Q782 131 667.5 53T397-25q-160 0-256 74T45 260zm41 0q0-102 73.5-173T393 16q197 0 311.5 121T819 424v194h-4q-16-23-45-38t-77-22-83-11-103.5-7-98.5-5q-72-6-122-17.5t-99.5-39-75-83T86 260zm227 903v166h41v-166h-41zm320 0v166h41v-166h-41z"/><glyph unicode="å" horiz-adv-x="985" d="M45 260q0 92 29.5 155.5t87 95.5 113 45T408 575q256 14 309 31 92 25 100 113 2 12 2 26 0 57-9 100.5T772 937t-94.5 73.5T512 1036q-164 0-257-81T152 727h-41q8 156 110.5 253t290.5 97q340 0 348-301V106q0-37 21.5-54T933 37l60 4V0q-27-1-53-1h-27q-39 1-66.5 26.5T819 102v138h-4Q782 131 667.5 53T397-25q-160 0-256 74T45 260zm41 0q0-102 73.5-173T393 16q197 0 311.5 121T819 424v194h-4q-16-23-45-38t-77-22-83-11-103.5-7-98.5-5q-72-6-122-17.5t-99.5-39-75-83T86 260zm227 1120q0 72 54.5 126.5t126 54.5 126-54.5T674 1380q0-74-53.5-127T494 1200q-72 0-126.5 53T313 1380zm41 .5q0-57.5 41-98.5t98.5-41 98.5 41 41 98.5-41 98.5-98.5 41-98.5-41-41-98.5z"/><glyph unicode="æ" horiz-adv-x="1820" d="M66 260q0 92 29.5 155.5t87 95.5T295 556t133 19q256 14 309 31 92 25 101 113 2 12 2 26 0 57-9.5 100.5t-38 91.5-94 73.5T532 1036q-164 0-257-81T172 727h-41q8 156 110.5 253t290.5 97q340 0 349-307h4q43 139 151.5 223t268.5 84q227 0 344-162 107-149 107-359 0-19-1-38H881q8-227 108.5-364.5T1300 16q162 0 275 91.5T1708 365h41q-16-174-139-281T1300-25h-7q-163 0-273 88-113 90-154 254h-4Q831 159 707.5 67T418-25q-160 0-256 74T66 260zm40 0q0-102 74-173t234-71q197 0 311.5 121T840 424v194h-4q-16-23-45-38t-77-22-83-11-103.5-7-99.5-5q-72-6-122-17.5t-99-39-75-83T106 260zm775 299h833q0 209-105.5 343T1305 1036q-190 0-299-127T881 559z"/><glyph unicode="ç" d="M63 504q0 246 126 409.5T555 1077q154 0 266.5-91T952 733h-41q-25 147-122 225t-234 78q-121 0-211-47T204 862t-75-170-25-188q0-205 113-346.5T530 16q158 0 267.5 93.5T920 358h41Q945 186 831 84T543-23l-68-92q4 0 24.5 6.5T543-102q66 0 109.5-30t43.5-93q0-150-200-150-57 0-168 35l18 39q94-33 150-33 160 0 159 109 0 39-36.5 60.5T543-143q-66 0-111-27l-31 20L502-20q-203 8-321 158.5T63 504z"/><glyph unicode="è" d="M51 526q0 252 136.5 401.5T512 1077q158 0 266.5-81T933 792q41-109 41-239 0-17-1-35H92q4-229 103.5-365.5T508 16q166 0 275.5 90.5T920 365h41Q941 185 817.5 80T512-25h-6q-229 0-341 150Q51 276 51 526zm41 33h840q2 203-108.5 340T516 1036q-174 0-294-130T92 559zm209 893h59l256-295h-30z"/><glyph unicode="é" d="M51 526q0 252 136.5 401.5T512 1077q158 0 266.5-81T933 792q41-109 41-239 0-17-1-35H92q4-229 103.5-365.5T508 16q166 0 275.5 90.5T920 365h41Q941 185 817.5 80T512-25h-6q-229 0-341 150Q51 276 51 526zm41 33h840q2 203-108.5 340T516 1036q-174 0-294-130T92 559zm307 598l271 295h59l-299-295h-31z"/><glyph unicode="ê" d="M51 526q0 252 136.5 401.5T512 1077q158 0 266.5-81T933 792q41-109 41-239 0-17-1-35H92q4-229 103.5-365.5T508 16q166 0 275.5 90.5T920 365h41Q941 185 817.5 80T512-25h-6q-229 0-341 150Q51 276 51 526zm41 33h840q2 203-108.5 340T516 1036q-174 0-294-130T92 559zm172 608l232 285h30l234-285h-41l-211 252-203-252h-41z"/><glyph unicode="ë" d="M51 526q0 252 136.5 401.5T512 1077q158 0 266.5-81T933 792q41-109 41-239 0-17-1-35H92q4-229 103.5-365.5T508 16q166 0 275.5 90.5T920 365h41Q941 185 817.5 80T512-25h-6q-229 0-341 150Q51 276 51 526zm41 33h840q2 203-108.5 340T516 1036q-174 0-294-130T92 559zm240 604v166h41v-166h-41zm319 0v166h41v-166h-41z"/><glyph unicode="ì" horiz-adv-x="266" d="M-78 1452h60l256-295h-31zM113 0v1053h41V0h-41z"/><glyph unicode="í" horiz-adv-x="266" d="M20 1157l271 295h59L51 1157H20zM113 0v1053h41V0h-41z"/><glyph unicode="î" horiz-adv-x="266" d="M-115 1167l232 285h30l234-285h-41l-211 252-203-252h-41zM113 0v1053h41V0h-41z"/><glyph unicode="ï" horiz-adv-x="266" d="M-47 1163v166h41v-166h-41zM113 0v1053h41V0h-41zm159 1163v166h41v-166h-41z"/><glyph unicode="ð" horiz-adv-x="1062" d="M57 508q0 219 127 374.5T532.5 1038 864 891h8q-55 113-149 224.5T543 1298l-250-139-31 31 248 137q-90 72-191 123l33 29q106-55 197-131l252 139 30-33-245-137q219-203 319.5-395.5T1006 508 879 132 530.5-23 183 132 57 508zm41 0q0-205 116-347.5T532 18q201 0 317 143.5T965 508q0 201-116 345T532 997q-203 0-318.5-143T98 508z"/><glyph unicode="ñ" d="M113 1053h41V793h4q31 127 130 205.5t249 78.5q168 0 271-100t103-279V0h-41v692q0 172-94 258t-239 86q-180 0-281.5-127T154 596V0h-41v1053zm129 135q0 57 43 109.5t96 52.5q49 0 135-59.5t125-59.5q45 0 72.5 33.5T741 1343h41q0-63-36.5-108T641 1190q-53 0-135 59.5T381 1309q-41 0-69.5-40t-28.5-81h-41z"/><glyph unicode="ò" horiz-adv-x="1062" d="M57 526.5q0 229.5 127 390T532 1077q219 0 346.5-161.5T1006 526q0-229-127-390T530.5-25 183 136 57 526.5zm41-.5q0-213 116-361.5T532 16q201 0 317 149.5T965 526q0 209-116 359.5T532 1036q-203 0-318.5-149.5T98 526zm224 926h59l256-295h-31z"/><glyph unicode="ó" horiz-adv-x="1062" d="M57 526.5q0 229.5 127 390T532 1077q219 0 346.5-161.5T1006 526q0-229-127-390T530.5-25 183 136 57 526.5zm41-.5q0-213 116-361.5T532 16q201 0 317 149.5T965 526q0 209-116 359.5T532 1036q-203 0-318.5-149.5T98 526zm322 631l270 295h60l-299-295h-31z"/><glyph unicode="ô" horiz-adv-x="1062" d="M57 526.5q0 229.5 127 390T532 1077q219 0 346.5-161.5T1006 526q0-229-127-390T530.5-25 183 136 57 526.5zm41-.5q0-213 116-361.5T532 16q201 0 317 149.5T965 526q0 209-116 359.5T532 1036q-203 0-318.5-149.5T98 526zm187 641l231 285h31l233-285h-41l-211 252-202-252h-41z"/><glyph unicode="õ" horiz-adv-x="1062" d="M57 526.5q0 229.5 127 390T532 1077q219 0 346.5-161.5T1006 526q0-229-127-390T530.5-25 183 136 57 526.5zm41-.5q0-213 116-361.5T532 16q201 0 317 149.5T965 526q0 209-116 359.5T532 1036q-203 0-318.5-149.5T98 526zm164 662q0 57 43 109.5t96 52.5q49 0 135.5-59.5T662 1231q45 0 72.5 33.5T762 1343h41q0-63-37-108t-104-45q-53 0-135.5 59.5T401 1309q-41 0-69.5-40t-28.5-81h-41z"/><glyph unicode="ö" horiz-adv-x="1062" d="M57 526.5q0 229.5 127 390T532 1077q219 0 346.5-161.5T1006 526q0-229-127-390T530.5-25 183 136 57 526.5zm41-.5q0-213 116-361.5T532 16q201 0 317 149.5T965 526q0 209-116 359.5T532 1036q-203 0-318.5-149.5T98 526zm254 637v166h41v-166h-41zm320 0v166h41v-166h-41z"/><glyph unicode="÷" horiz-adv-x="1228" d="M98 498v41h1032v-41H98zM530 84q0 37 25 60.5t59.5 23.5 59-24.5T698 84q0-84-84-84t-84 84zm0 868q0 37 25 60.5t59.5 23.5 59-24.5T698 952q0-84-84-84t-84 84z"/><glyph unicode="ø" horiz-adv-x="1062" d="M37 45l123 127Q58 317 57 526q0 229 127 390t348 161q213 0 342-157l93 96 28-29-96-100q106-147 107-361 0-229-127-390T530-25q-217 0-348 162L66 16zm61 481q0-186 90-323l656 686q-115 147-312 147-203 0-318.5-149.5T98 526zm115-356Q326 16 532 16q201 0 317 149.5T965 526q0 190-97 330z"/><glyph unicode="ù" d="M113 354v699h41V360q0-172 94-258t239-86q180 0 281.5 127T870 457v596h41V0h-41v260h-4Q835 133 736 54T487-25Q319-25 216 75.5T113 354zm188 1098h59l256-295h-30z"/><glyph unicode="ú" d="M113 354v699h41V360q0-172 94-258t239-86q180 0 281.5 127T870 457v596h41V0h-41v260h-4Q835 133 736 54T487-25Q319-25 216 75.5T113 354zm286 803l271 295h59l-299-295h-31z"/><glyph unicode="û" d="M113 354v699h41V360q0-172 94-258t239-86q180 0 281.5 127T870 457v596h41V0h-41v260h-4Q835 133 736 54T487-25Q319-25 216 75.5T113 354zm151 813l232 285h30l234-285h-41l-211 252-203-252h-41z"/><glyph unicode="ü" d="M113 354v699h41V360q0-172 94-258t239-86q180 0 281.5 127T870 457v596h41V0h-41v260h-4Q835 133 736 54T487-25Q319-25 216 75.5T113 354zm219 809v166h41v-166h-41zm319 0v166h41v-166h-41z"/><glyph unicode="ý" horiz-adv-x="833" d="M-25 1053h45L438 55l377 998h43L373-215q-20-51-47-83t-68-45-72.5-16-91.5-3v40h18q99 0 144 22 49 24 84 114l76 196zm330 149l270 295h60l-299-295h-31z"/><glyph unicode="þ" horiz-adv-x="1099" d="M113-362v1824h41V758h4q43 145 149.5 232t272.5 87q215 0 331.5-151.5T1028 528q0-154-45-274.5T833.5 54 580-25q-160 0-272.5 87.5T158 295h-4v-657h-41zm41 890q0-240 117.5-376T580 16q147 0 242.5 80t130 189.5T987 528q0 219-101.5 363.5t-306 144.5-315-145.5T154 528z"/><glyph unicode="ÿ" horiz-adv-x="833" d="M-25 1053h45L438 55l377 998h43L373-215q-20-51-47-83t-68-45-72.5-16-91.5-3v40h18q99 0 144 22 49 24 84 114l76 196zm263 155v166h41v-166h-41zm319 0v166h41v-166h-41z"/><glyph unicode="Œ" horiz-adv-x="2086" d="M66 723q0 211 73.5 383t230 281.5T741 1497q254 0 402-168v133h889v-41h-848V782h749v-41h-749V41h848V0h-889v133Q981-35 741-35q-317 0-496 218T66 723zm40 0q4-317 174.5-517T741 6q240 0 402 187v1083q-96 98-184.5 139T741 1456q-289 0-460-200.5T106 723z"/><glyph unicode="œ" horiz-adv-x="1822" d="M66 526q0 106 23.5 200.5T162 902t135 128 201 47q168 0 276.5-98T905 717h4q29 164 130.5 261t283.5 99h6q209 0 316-149 109-152 108-379v-31H930q-4-502 393-502 313 0 375 338h41q-29-176-135.5-277.5T1323-25t-280.5 90.5T911 322h-4Q872 158 770 66.5T498-25q-147 0-247.5 82T108 259 66 526zm41 0q0-213 96-361.5T498 16q109 0 186.5 41T806 172t63.5 161T889 526q0 102-20.5 190.5t-64.5 162T682 994t-184 42q-199 0-295-146.5T107 526zm823 33h782q-4 211-98 344t-289 133q-377 0-395-477z"/><glyph unicode="Ÿ" horiz-adv-x="1101" d="M-61 1462h51l561-803 563 803h49L571 616V0h-41v616zm432 111v166h41v-166h-41zm319 0v166h41v-166h-41z"/><glyph unicode="ˆ" horiz-adv-x="266" d="M-115 1212l232 285h30l234-285h-41l-211 252-203-252h-41z"/><glyph unicode="˜" horiz-adv-x="266" d="M-137 1233q0 57 43 109.5T2 1395q49 0 135-59.5t125-59.5q45 0 72.5 33.5T362 1389h41q0-63-36.5-108.5T262 1235q-53 0-135 59.5T2 1354q-41 0-69.5-40t-28.5-81h-41z"/><glyph unicode="–" d="M0 528v41h1024v-41H0z"/><glyph unicode="—" horiz-adv-x="2048" d="M266 528v41h1516v-41H266z"/><glyph unicode="‘" horiz-adv-x="342" d="M150 1001v242q0 106 18 147.5t74 71.5v-41q-51-33-52-178v-242h-40z"/><glyph unicode="’" horiz-adv-x="342" d="M100 1001v41q51 33 52 179v241h41v-241q0-106-19-147.5t-74-72.5z"/><glyph unicode="‚" horiz-adv-x="342" d="M98-203q51 49 52 203v201h40V0q0-182-92-244v41z"/><glyph unicode="“" horiz-adv-x="569" d="M170 1001v242q0 106 18.5 147.5T262 1462v-41q-51-33-51-178v-242h-41zm205 0v242q0 106 18.5 147.5T467 1462v-41q-51-33-51-178v-242h-41z"/><glyph unicode="”" horiz-adv-x="569" d="M102 1001v41q51 33 52 179v241h41v-241q0-106-19-147.5t-74-72.5zm205 0v41q51 33 51 179v241h41v-241q0-106-18.5-147.5T307 1001z"/><glyph unicode="„" horiz-adv-x="569" d="M102-203q51 49 52 203v201h41V0q0-182-93-244v41zm205 0q51 49 51 203v201h41V0q0-182-92-244v41z"/><glyph unicode="•" d="M147 731.5q0 151.5 106.5 258T512 1096t259.5-106.5 107.5-258-107.5-259T512 365 253.5 472.5 147 731.5z"/><glyph unicode="…" horiz-adv-x="2048" d="M322 0v201h40V0h-40zm682 0v201h40V0h-40zm682 0v201h40V0h-40z"/><glyph unicode="‹" horiz-adv-x="530" d="M135 532v33l211 285v-72L176 549l170-230v-71z"/><glyph unicode="›" horiz-adv-x="530" d="M184 248v71l170 230-170 229v72l211-285v-33z"/><glyph unicode="€" horiz-adv-x="1138" d="M0 551l14 35h109q-4 29-4 43v43q0 41 4 119H0l14 34h113q33 262 196.5 430T745 1423q209 0 381-135l-18-33q-170 131-365 131-240 0-392-158.5T168 825h833l-18-34H164q-4-66-4-99 0-53 6-106h774l-18-35H170q39-236 187.5-390.5T737 6q256 0 424 199v-55Q983-30 731-31q-248 0-407.5 165T125 551H0z"/><glyph unicode="™" horiz-adv-x="2027" d="M168 1421v41h655v-41H516V618h-41v803H168zm848-803v844h69l332-786 332 786h70V618h-41v803h-4l-336-803h-41l-336 803h-4V618h-41z"/><glyph unicode="" horiz-adv-x="1055" d="M0 1055h1055V0H0v1055z"/><glyph unicode="ﬁ" horiz-adv-x="681" d="M-2 1012v41h180v233q0 59 18.5 97t53.5 54.5 63.5 20.5 71.5 4q16 0 32.5-1t33-4 22.5-3v-41q-51 8-96 8-94 0-126-33.5T219 1272v-219h227v-41H219V0h-41v1012H-2zM528 0v1053h41V0h-41zm0 1255v207h41v-207h-41z"/><glyph unicode="ﬂ" horiz-adv-x="681" d="M-2 1012v41h180v233q0 59 18.5 97t53.5 54.5 63.5 20.5 71.5 4q16 0 32.5-1t33-4 22.5-3v-41q-51 8-96 8-94 0-126-33.5T219 1272v-219h227v-41H219V0h-41v1012H-2zM528 0v1462h41V0h-41z"/><glyph unicode="ﬃ" horiz-adv-x="1101" d="M-2 1012v41h180v233q0 59 18.5 97t53.5 54.5 63.5 20.5 71.5 4q16 0 32.5-1t33-4 22.5-3v-41q-51 8-96 8-94 0-126-33.5T219 1272v-219h227v-41H219V0h-41v1012H-2zm418 0v41h180v233q0 59 18.5 97t53 54.5T731 1458t72 4q16 0 32.5-1t33-4 22.5-3v-41q-51 8-96 8-94 0-126-33.5T637 1272v-219h227v-41H637V0h-41v1012H416zM948 0v1053h41V0h-41zm0 1255v207h41v-207h-41z"/><glyph unicode="ﬄ" horiz-adv-x="1101" d="M-2 1012v41h180v233q0 59 18.5 97t53.5 54.5 63.5 20.5 71.5 4q16 0 32.5-1t33-4 22.5-3v-41q-51 8-96 8-94 0-126-33.5T219 1272v-219h227v-41H219V0h-41v1012H-2zm418 0v41h180v233q0 59 18.5 97t53 54.5T731 1458t72 4q16 0 32.5-1t33-4 22.5-3v-41q-51 8-96 8-94 0-126-33.5T637 1272v-219h227v-41H637V0h-41v1012H416zM948 0v1462h41V0h-41z"/></font>
</defs>
</svg>
