<svg width="15" height="15" xmlns="http://www.w3.org/2000/svg"><path d="M13.101 8.25c0-.225.075-.45.075-.75s0-.525-.075-.75l1.581-1.275c.15-.15.15-.3.076-.45L13.252 2.4c-.076-.075-.226-.15-.452-.075l-1.882.75c-.377-.3-.829-.525-1.28-.75L9.336.375C9.412.15 9.186 0 9.036 0H6.023c-.151 0-.377.15-.377.3l-.301 2.025c-.452.15-.828.45-1.28.75l-1.807-.75c-.226-.075-.377 0-.527.15L.226 5.1c-.075.075 0 .3.15.45l1.582 1.2c0 .225-.076.45-.076.75s0 .525.076.75L.376 9.525c-.15.15-.15.3-.075.45L1.807 12.6c.075.075.226.15.452.075l1.882-.75c.377.3.828.525 1.28.75l.301 1.95c0 .15.15.3.377.3H9.11c.15 0 .376-.15.376-.3l.301-1.95c.452-.225.904-.45 1.28-.75l1.883.75c.15.075.376 0 .451-.15L14.908 9.9c.076-.15.076-.375-.075-.45L13.1 8.25zM7.53 10.125c-1.43 0-2.635-1.2-2.635-2.625S6.1 4.875 7.53 4.875c1.431 0 2.636 1.2 2.636 2.625s-1.205 2.625-2.636 2.625z" fill="#FFF" fill-rule="evenodd" opacity=".5"/></svg>