<svg width="16" height="16" xmlns="http://www.w3.org/2000/svg"><path d="M13.988 8.844c0-.241.081-.482.081-.804 0-.321 0-.563-.081-.804l1.714-1.367c.163-.16.163-.321.081-.482l-1.632-2.814c-.082-.08-.245-.16-.49-.08l-2.04.803c-.408-.321-.898-.562-1.387-.804L9.907.402C9.99.161 9.744 0 9.581 0H6.316c-.163 0-.408.16-.408.322l-.326 2.17c-.49.161-.898.483-1.388.804l-1.958-.804c-.245-.08-.409 0-.572.161L.032 5.467c-.082.08 0 .322.163.483L1.91 7.236c0 .241-.082.483-.082.804 0 .322 0 .563.082.804L.195 10.211c-.163.16-.163.322-.081.482l1.632 2.815c.081.08.245.16.49.08l2.04-.804c.408.322.898.563 1.387.804l.327 2.09c0 .161.163.322.408.322h3.264c.163 0 .408-.16.408-.322l.327-2.09c.49-.241.98-.482 1.387-.804l2.04.804c.164.08.409 0 .49-.16l1.632-2.815c.082-.16.082-.402-.081-.482l-1.877-1.287zm-6.04 2.01c-1.55 0-2.856-1.286-2.856-2.814 0-1.527 1.306-2.814 2.856-2.814 1.551 0 2.857 1.287 2.857 2.814 0 1.528-1.306 2.814-2.857 2.814z" fill="#FFF" fill-rule="evenodd"/></svg>