<svg width="100" height="97" xmlns="http://www.w3.org/2000/svg"><g fill="#EEE"><path d="M25.878 20.69h48.244c.961 0 1.74-.772 1.74-1.724 0-.953-.779-1.725-1.74-1.725H25.878c-.961 0-1.74.772-1.74 1.725 0 .952.779 1.724 1.74 1.724zm0 11.494h48.244c.961 0 1.74-.772 1.74-1.724s-.779-1.724-1.74-1.724H25.878c-.961 0-1.74.772-1.74 1.724s.779 1.724 1.74 1.724z"/><path d="M86.917 59.79V13.102s-.18-.914-.515-1.252L75.158.519a1.745 1.745 0 0 0-1.243-.515L14.883 0c-.97 0-1.757.793-1.757 1.77v50.045A23.608 23.608 0 0 0 0 72.988C0 85.98 10.49 96.552 23.383 96.552h57.95C91.627 96.552 100 88.113 100 77.74c0-8.413-5.51-15.554-13.083-17.951zM75.672 6.045l5.246 5.286h-5.246V6.045zM16.64 3.54h55.52v9.56c0 .979.786 1.771 1.756 1.771h9.488v44.176a18.675 18.675 0 0 0-2.047-.118l.002-.297a24.287 24.287 0 0 0-6.167-16.203 1.77 1.77 0 0 0 .95-1.571c0-.978-.787-1.77-1.757-1.77H71.54a23.839 23.839 0 0 0-14.273-4.733 23.925 23.925 0 0 0-14.313 4.732H25.659c-.97 0-1.757.793-1.757 1.77 0 .979.787 1.771 1.757 1.771h13.47a24.21 24.21 0 0 0-5.047 9.405 23.14 23.14 0 0 0-10.699-2.61c-2.343 0-4.607.35-6.743 1V3.54zm64.694 89.47h-57.95c-10.957 0-19.87-8.982-19.87-20.023 0-11.04 8.913-20.023 19.87-20.023 3.895 0 7.67 1.14 10.916 3.295.495.329 1.12.384 1.664.146a1.769 1.769 0 0 0 1.034-1.323c1.704-9.958 10.23-17.186 20.27-17.186 11.345 0 20.576 9.302 20.576 20.736 0 .648-.033 1.321-.098 2-.05.53.139 1.055.514 1.43.376.373.898.557 1.424.5.559-.06 1.114-.092 1.65-.092 8.355 0 15.152 6.85 15.152 15.27s-6.797 15.27-15.152 15.27z"/></g></svg>