<svg width="24" height="23" xmlns="http://www.w3.org/2000/svg" xmlns:xlink="http://www.w3.org/1999/xlink"><defs><path id="a" d="M0 0h24v23H0z"/></defs><g fill="none" fill-rule="evenodd"><mask id="b" fill="#fff"><use xlink:href="#a"/></mask><path d="M6.974 13.57c-1.167 0-2.117-.964-2.117-2.156 0-1.192.947-2.156 2.117-2.156s2.118.964 2.118 2.156c0 1.192-.947 2.156-2.118 2.156zm.085 1.61c-1.993 0-3.614-1.647-3.614-3.68 0-2.032 1.618-3.68 3.614-3.68 1.996 0 3.614 1.648 3.614 3.68 0 2.033-1.618 3.68-3.614 3.68zm5.702-3.68c0-.895.544-1.603 1.357-2.089a7.569 7.569 0 0 0-.582-1.43c-.915.243-1.653-.12-2.278-.756-.622-.632-.814-1.389-.574-2.322a7.334 7.334 0 0 0-1.404-.59c-.479.83-1.339 1.381-2.221 1.381-.878 0-1.742-.55-2.22-1.381-.493.15-.964.348-1.405.59.238.933.048 1.685-.574 2.322-.62.633-1.363 1-2.275.756A7.322 7.322 0 0 0 0 9.411c.816.486 1.36 1.194 1.36 2.09 0 .893-.544 1.773-1.36 2.26.147.502.342.98.58 1.43.917-.244 1.655-.048 2.276.584.626.633.813 1.389.575 2.32.444.245.91.443 1.403.593.479-.831 1.343-1.382 2.22-1.382.88 0 1.744.55 2.221 1.382a7.19 7.19 0 0 0 1.405-.593c-.238-.931-.048-1.683.573-2.32.621-.632 1.364-.999 2.28-.756.239-.453.434-.933.58-1.43-.811-.487-1.352-1.195-1.352-2.089zM5.647 2.875h2.118v-.719h10.588V5.75h3.53v15.094H7.764c-.024 0 0-.184 0-.719 0-.04-2.118 0-2.118 0V23H24V4.313L19.765 0H5.647v2.875z" fill="#FFF" mask="url(#b)"/></g></svg>