<svg xmlns="http://www.w3.org/2000/svg"><defs><font id="liberation_sansregular" horiz-adv-x="1139"><font-face units-per-em="2048" ascent="1638" descent="-410"/><glyph horiz-adv-x="0"/><glyph horiz-adv-x="569"/><glyph horiz-adv-x="569"/><glyph horiz-adv-x="569"/><glyph horiz-adv-x="569"/><glyph unicode="!" horiz-adv-x="569" d="M185 0v201h194V0H185zm2 1409h196L359 397H211z"/><glyph unicode="&quot;" horiz-adv-x="727" d="M87 1409h184l-22-443H108zm369 0h184l-22-443H476z"/><glyph unicode="#" d="M9 408v108h225l78 369H60v108h274l89 408h110l-88-408h363l88 408h110l-88-408h211V885H896l-78-369h260V408H795L707 0H597l86 408H320L236 0H126l84 408H9zm336 108h362l78 369H425z"/><glyph unicode="$" d="M22 379l170 37q11-53 34-96.5t62-75.5 95.5-51.5T518 168v496l-20 5q-77 18-151 43t-132 66.5T121.5 884 86 1046q0 84 32 146t89.5 103.5T344 1359t174 26v131h124v-131q100-5 172.5-27.5T938 1295t84-97.5 53-132.5l-174-33q-20 94-81 146.5T642 1242V797q59-14 116-29t108.5-35.5T962 684t76-67.5 50-94 18-126.5q0-77-28-142.5T993 138 848.5 57 642 20v-162H518V20q-217 9-339.5 101.5T22 379zm236 669q0-54 20-91t55-62 82.5-41.5T518 823v421q-72-4-122-20.5t-80.5-42.5-44-60-13.5-73zm384-881q65 4 119 19.5t92.5 43.5 59.5 68.5 21 95.5q0 63-23.5 103t-64 65.5T753 604t-111 31V167z"/><glyph unicode="%" horiz-adv-x="1821" d="M73 975q0 131 24.5 217t67.5 137 102 71.5 127 20.5q64 0 121-20.5t100-71.5 67.5-137T707 975q0-126-25-212t-67.5-139.5T514 547t-124-23q-67 0-125 23t-100.5 76-67 139T73 975zm147 0q0-95 11.5-160t33-104.5T318 654t74-17q38 0 69 17t53 56.5T548 815t12 160q0 98-11 163t-32 104-52 55-71 16q-43 0-75.5-16.5T264 1241t-33-104-11-162zM372 0l922 1409h157L527 0H372zm741 434q0 133 24 220t67 138.5 101.5 72T1432 885q66 0 123.5-20.5t100-72T1723 654t25-220q0-125-25.5-210.5t-69-138-101.5-75T1428-12t-123.5 22.5-100 74.5-67 137.5T1113 434zm147 0q0-95 11.5-159t33-103.5 53-56.5 72.5-17q39 0 70.5 17t53.5 56.5 34 103.5 12 159q0 99-11 164.5T1556.5 703t-53 55-71.5 16q-42 0-74-16.5t-54-55.5-33-104.5-11-163.5z"/><glyph unicode="&amp;" horiz-adv-x="1366" d="M72 371q0 79 25.5 143.5t71 117 108.5 94T415 800q-18 34-32.5 72.5T357 950t-17 78-6 74q0 66 20 123.5t62.5 100 109 67T685 1417q73 0 134.5-19t106.5-55 70-89 25-121q0-75-33-133.5T899 895t-130-83.5T612 741q62-114 135-214.5T905 329q61 90 101.5 189.5T1076 739l145-43q-35-139-88.5-252.5T1009 227q53-54 106-76t102-22q32 0 61.5 3.5T1334 145V10q-28-11-65.5-16.5T1193-12q-96 0-168 33t-130 94q-30-26-68-50t-84.5-43-101-30.5T523-20q-117 0-202.5 30T180 92.5t-81.5 124T72 371zm168 2q0-55 17.5-102.5t53.5-83 90.5-56T529 111q44 0 83.5 9.5T686 145t61.5 34 47.5 38q-89 105-171 220T476 674q-113-48-174.5-122T240 373zm247 729q0-59 18.5-123.5T552 858q65 26 123 53.5t101 60 68 72 25 89.5q0 37-13.5 67t-37.5 51.5-58.5 33T683 1296q-96 0-146-51.5T487 1102z"/><glyph unicode="'" horiz-adv-x="391" d="M104 1409h184l-22-443H125z"/><glyph unicode="(" horiz-adv-x="682" d="M127 528v4q0 139 21 266t66 244 115 227 167 215h174q-94-105-162.5-215.5t-112.5-228T329.5 796 308 530t21.5-266T395 19t112.5-228T670-424H496q-97 105-167 215T214 18t-66 243.5T127 528z"/><glyph unicode=")" horiz-adv-x="682" d="M12-424q94 105 162.5 215T287 19t65.5 245T374 530t-21.5 266-65.5 244.5-112.5 228T12 1484h174q97-105 167-215t115-227 66-244 21-266v-4q0-140-21-266.5T468 18 353-209 186-424H12z"/><glyph unicode="*" horiz-adv-x="797" d="M33 1085l45 134 267-107-12 297h136l-13-295 264 103 45-132-282-73 185-250-119-72-150 258-156-256-119 72 189 248z"/><glyph unicode="+" horiz-adv-x="1196" d="M100 608v146h424v428h147V754h424V608H671V180H524v428H100z"/><glyph unicode="," horiz-adv-x="569" d="M184-262q45 65 69.5 131T278 0h-88v219h195V51q0-53-4.5-96.5t-14.5-81-24.5-70.5-34.5-65H184z"/><glyph unicode="-" horiz-adv-x="682" d="M91 464v160h500V464H91z"/><glyph unicode="." horiz-adv-x="569" d="M187 0v219h195V0H187z"/><glyph unicode="/" horiz-adv-x="569" d="M0-20l411 1504h158L162-20H0z"/><glyph unicode="0" d="M80 705q0 213 37.5 352.5T221 1280t156 116.5 196 33.5q101 0 189.5-33.5T917 1280t104-222.5 38-352.5q0-203-38.5-341.5t-105-224T759 17 567-20q-103 0-192 37T220.5 139t-103 223.5T80 705zm182 0q0-162 20.5-273t60-178.5 96.5-97T569 127q71 0 128 29.5t96.5 97 61 178.5T876 705q0 168-20 279.5t-59 178-95.5 94T573 1284q-76 0-134-28t-97.5-94.5-59.5-178T262 705z"/><glyph unicode="1" d="M156 0v153h359v1084l-318-227v170l333 229h166V153h343V0H156z"/><glyph unicode="2" d="M103 0v127q51 117 124.5 206.5t154.5 162T542.5 630 686 754t103.5 130 39.5 154q0 60-18 105.5t-52 76.5-81.5 46.5T572 1282q-54 0-101.5-15t-84.5-45-60.5-74.5T295 1044l-184 17q9 76 42 143t91 117.5 139.5 79.5 188.5 29q105 0 187-25t138.5-74 86.5-121 30-166q0-71-25.5-135t-68-122T822 675 705 569.5t-123-102T465.5 366 368 262.5 301 153h735V0H103z"/><glyph unicode="3" d="M78 362l186 17q8-56 29.5-102t58.5-79 91-51 128-18q136 0 213.5 67T862 395q0 78-34.5 125.5t-86 74-112 35.5-111.5 9H416v156h98q51 0 106 10.5t100.5 38 75 74.5 29.5 120q0 113-66.5 178.5T561 1282q-119 0-192.5-61T283 1049l-181 14q11 93 51 162t101.5 114.5 140.5 68 168 22.5q118 0 203-29.5t139-80 79.5-118.5 25.5-145q0-62-17-116t-53-97-91.5-74T715 723v-4q85-9 148-38.5T967 607t61.5-100 20.5-118q0-97-31.5-173t-92-128.5-150-80T571-20q-131 0-220.5 32.5T203 98.5t-87 122T78 362z"/><glyph unicode="4" d="M47 319v140l645 950h189V461h198V319H881V0H711v319H47zm166 142h498v745q-2-5-10-19.5t-18-32.5-20.5-36.5T644 1087L283 555q-5-8-14.5-21T249 507.5 229 481t-16-20z"/><glyph unicode="5" d="M82 315l182 21q11-40 31-77.5t54.5-67 85-47T557 127q70 0 127 21.5t97.5 63.5T844 315t22 140q0 65-21 119.5t-60 94-95.5 61.5T561 752q-45 0-83-8t-70.5-22-59-32.5T299 651H123l47 758h801v-153H334l-27-447q48 37 120 63.5T598 899q105 0 189-32t143-90.5 91-139.5 32-178q0-106-32-194t-95-151.5T769.5 15 553-20Q442-20 359.5 6T220 77.5 129.5 184 82 315z"/><glyph unicode="6" d="M104 672q0 188 34.5 330t99.5 237 158.5 143 211.5 48q72 0 135-15t114.5-48.5T948 1278t62-135l-172-31q-28 91-89.5 131.5T606 1284q-74 0-134-35t-102-104.5T305.5 970 283 725q49 91 138 138.5T625 911q96 0 174-31t133.5-89.5 86-142T1049 461q0-106-29.5-194.5t-87-152-142.5-99T594-20q-123 0-215 47T226 162.5t-91.5 217T104 672zm197-176q0-78 20-145.5T378.5 233t90.5-79 119-29q65 0 116.5 22.5t87.5 65T847 316t19 137q0 73-18 132t-54 100.5-89 64T582 772q-49 0-99-14.5t-90.5-47-66-85.5T301 496z"/><glyph unicode="7" d="M105 1256v153h931v-146q-106-162-195-311.5t-153-301-99.5-311T553 0H365q0 169 40 331.5t108 319T671 958t191 298H105z"/><glyph unicode="8" d="M89 391q0 77 23.5 137t63 103.5 90 70T370 737v4q-59 14-105.5 45t-78 74.5-48 96.5-16.5 112q0 74 28.5 139.5t84.5 115 139 78 192 28.5q115 0 199.5-29t140-78.5T988 1207t27-140q0-58-16.5-111t-48-96.5-78-74T765 743v-4q61-10 113-36.5t90-70 60-103.5 22-136q0-90-28.5-165.5T934.5 97 785 11 570-20 355.5 11t-150 85.5-88 130T89 391zm186 15q0-65 16-118.5t51-92 92-59.5 138-21q82 0 138 21t90 59.5 48.5 93T863 410q0 51-14 98.5t-48 84-91.5 59T566 674q-79 0-134.5-22.5t-90-59.5-50.5-85.5T275 406zm31 651q0-42 11-86t40-80 80-59 131-23q85 0 136.5 23t79 59 36 80 8.5 86q0 53-13.5 97t-44.5 75.5-81 49-123 17.5q-71 0-120-17.5t-80.5-49T320 1154t-14-97z"/><glyph unicode="9" d="M96 956q0 109 31.5 197t91.5 149.5 147.5 94.5 198.5 33q235 0 356-174t121-523q0-188-35.5-329.5T905 168 744.5 27 532-20q-81 0-146 16.5T270 48t-87 91-58 135l172 27q28-91 87.5-133.5T535 125q73 0 133.5 34.5t103 103.5T838 436t26 244q-21-47-57.5-84t-83-62.5-100.5-39T514 481q-96 0-173.5 34.5T209 612t-83.5 149.5T96 956zm183 0q0-71 17.5-132T349 718.5t87-70T557 623q50 0 101.5 17t93 52 68 88.5T846 907q0 78-18.5 147t-55 120-90 80.5T559 1284q-65 0-117-23t-88-65.5-55.5-103.5T279 956z"/><glyph unicode=":" horiz-adv-x="569" d="M187 0v207h195V0H187zm0 875v207h195V875H187z"/><glyph unicode=";" horiz-adv-x="569" d="M184-262q45 65 69.5 131T278 0h-88v207h195V51q0-53-4.5-96.5t-14.5-81-24.5-70.5-34.5-65H184zm6 1137v207h195V875H190z"/><glyph unicode="&lt;" horiz-adv-x="1196" d="M101 571v205l995 418v-154L238 674l858-367V154z"/><glyph unicode="=" horiz-adv-x="1196" d="M100 344v148h995V344H100zm0 512v148h995V856H100z"/><glyph unicode="&gt;" horiz-adv-x="1196" d="M101 154v153l858 367-858 366v154l995-418V571z"/><glyph unicode="?" d="M84 1020q11 84 44.5 158.5t94 130.5 150 88.5T584 1430q114 0 203-28t150.5-79.5T1031 1197t32-165q0-71-18.5-125T995 810.5t-70.5-76T844 671t-80.5-59-71-63-51-75.5T621 377H446q2 69 21.5 121t50.5 92 70 71.5 79 60 78.5 57T814 842t48.5 79 18.5 103-21 105-59.5 77.5-93 47.5-121.5 16q-140 0-222-70t-96-192zM438 0v201h195V0H438z"/><glyph unicode="@" horiz-adv-x="2079" d="M161 491q0 139 31.5 267T283 996t144 200 192.5 154 235 99 271.5 35q201 0 347-59t241.5-159 141.5-232 46-279q0-144-33.5-263.5T1776 286t-141.5-134-179.5-48q-56 0-95.5 13.5t-64.5 37-36 55.5-11 70q0 15 1 36.5t2 33.5h-6q-24-45-58.5-89.5t-81-79-105-56T871 104q-84 0-146.5 29t-103 80.5-60.5 122T541 489q0 120 35.5 230.5t101.5 195T836.5 1050t206.5 51q60 0 108-13.5t84.5-37.5 63.5-57.5 45-73.5h6l39 160h156l-116-506q-19-84-28-144t-9-109q0-48 21.5-71t59.5-23q62 0 115.5 40.5t93 111.5 62 167 22.5 208q0 129-41.5 240t-122 192-199.5 127-275 46q-134 0-247.5-32T675 1236t-161.5-138.5T397 921t-71-205.5T302 491q0-141 43-260T470.5 26.5t204-133.5T954-155q105 0 196 16.5T1317-98t136 52.5T1557 7l55-112q-50-30-117.5-61.5T1344-224t-181-42.5T954-283q-190 0-337.5 57.5T367.5-65t-154 245T161 491zm545 0q0-120 47.5-188T900 235q69 0 129 31t108 82 83 117 53 137q9 36 16 76t7 69q0 50-17 92t-48.5 72-76 46.5T1054 974q-86 0-151-42.5T794.5 820t-66-155.5T706 491z"/><glyph unicode="A" horiz-adv-x="1366" d="M4 0l575 1409h217L1362 0h-195l-161 412H364L202 0H4zm418 561h527l-181 465q-16 40-30.5 81t-25.5 74.5-18.5 56-8.5 27.5q-2-5-9-28t-18.5-57-26-75-29.5-81z"/><glyph unicode="B" horiz-adv-x="1366" d="M168 0v1409h512q117 0 209-19.5t156-61.5 97.5-106.5T1176 1067q0-59-16.5-111t-50-94.5-84-73T908 743q85-10 150.5-39t109.5-74 67-104.5 23-128.5q0-107-42-182.5t-113-123T938 22 740 0H168zm191 153h371q73 0 134.5 12t106 42 69.5 80 25 125q0 67-24.5 114T970 603t-110.5 44T715 661H359V153zm0 657h321q84 0 142 16.5t94 47 52 73.5 16 97q0 114-78 163t-226 49H359V810z"/><glyph unicode="C" horiz-adv-x="1479" d="M104 711q0 165 45.5 298t133 226.5 215.5 144 292 50.5q225 0 376-88t222-261l-181-60q-20 50-54 95.5t-85 80.5-119.5 56-156.5 21q-120 0-212.5-40t-155-114T330 942t-32-231 34.5-232.5 99-181.5 158-118T800 137q82 0 149.5 21.5t122 60.5 97.5 92.5 76 118.5l156-78q-38-79-94-147T1175.5 87t-171-78.5T791-20q-171 0-299.5 54.5t-215 152T147 418t-43 293z"/><glyph unicode="D" horiz-adv-x="1479" d="M168 0v1409h466q163 0 300.5-40.5t236.5-125 154.5-214.5 55.5-310q0-176-53-310.5t-145-225-217.5-137T695 0H168zm191 153h314q111 0 205.5 36T1042 296t108 177 39 246q0 143-41 244.5T1033 1130t-177 95.5-226 30.5H359V153z"/><glyph unicode="E" horiz-adv-x="1366" d="M168 0v1409h1069v-156H359V801h818V647H359V156h919V0H168z"/><glyph unicode="F" horiz-adv-x="1251" d="M168 0v1409h1001v-156H359V729h786V571H359V0H168z"/><glyph unicode="G" horiz-adv-x="1593" d="M103 711q0 165 44.5 298t133 226.5 219.5 144 304 50.5q130 0 228-23t170-66 122-104.5 85-138.5l-182-54q-26 52-62.5 94.5T1076 1211t-120.5 46.5T799 1274q-128 0-222.5-40T420 1120t-92.5-178T297 711t33-232.5 98-182 161.5-119T813 135q83 0 153 14t126.5 36.5 99.5 50 72 55.5v254H843v160h597V219q-47-48-110.5-91.5T1187 51 1014-1 813-20q-178 0-311 54.5t-221.5 152-133 231.5T103 711z"/><glyph unicode="H" horiz-adv-x="1479" d="M168 0v1409h191V813h762v596h191V0h-191v653H359V0H168z"/><glyph unicode="I" horiz-adv-x="569" d="M189 0v1409h191V0H189z"/><glyph unicode="J" horiz-adv-x="1024" d="M32 350l187 31q10-65 33-111.5t55-76.5 71-44 80-14q104 0 164 71.5T682 416v837H411v156h461V420q0-101-28-182T762.5 99.5 632 11 457-20q-171 0-280.5 89T32 350z"/><glyph unicode="K" horiz-adv-x="1366" d="M168 0v1409h191V703l679 706h225L663 797 1343 0h-237L543 680 359 540V0H168z"/><glyph unicode="L" d="M168 0v1409h191V156h712V0H168z"/><glyph unicode="M" horiz-adv-x="1706" d="M168 0v1409h251l375-977q7-20 17-51.5t19-64.5 16.5-62.5T857 208q3 16 11 46t18.5 63 20.5 64 18 51l368 977h245V0h-172v940q0 51 1 104t3 97q2 51 5 99-14-51-29-101-13-43-28.5-91.5T1287 960L923 0H789L420 960q-6 15-12.5 35t-14 42.5-15 46T364 1130q-17 53-33 110 1-56 3-111 2-47 3-98.5t1-90.5V0H168z"/><glyph unicode="N" horiz-adv-x="1479" d="M168 0v1409h222l762-1208-6 98q-2 42-4 91.5t-2 94.5v924h172V0h-230L328 1200q2-49 5-97 2-41 3.5-86.5T338 936V0H168z"/><glyph unicode="O" horiz-adv-x="1593" d="M97 711q0 165 46 298t135 226.5 219.5 144T797 1430q168 0 298.5-51t219-145 134.5-227 46-296q0-165-47.5-300T1310 180 1090 32 795-20q-174 0-305 54.5t-218 152T141 418 97 711zm194 0q0-127 32.5-232.5t96-182 158-119T795 135q132 0 227.5 43t157 119.5 91 182.5 29.5 231q0 127-32.5 231t-96 178-157.5 114-217 40q-126 0-221-40t-158.5-114-95-178T291 711z"/><glyph unicode="P" horiz-adv-x="1366" d="M168 0v1409h593q125 0 218-30.5t155-86 93-134 31-173.5q0-92-30.5-171.5t-91-138T985 583t-212-34H359V0H168zm191 700h387q165 0 242.5 73t77.5 210q0 134-82 203.5T738 1256H359V700z"/><glyph unicode="Q" horiz-adv-x="1593" d="M97 711q0 165 46 298t135 226.5 219.5 144T797 1430q168 0 298.5-51t219-145 134.5-227 46-296q0-149-38.5-272.5t-111-216.5-178-151.5T928-6q21-64 47.5-109t60.5-73.5 75.5-42T1204-244q28 0 60 4t55 9v-134q-38-9-83.5-15.5T1141-387q-86 0-150 25.5t-112.5 73T795-172 733-16Q575-8 455.5 49.5t-199 154-119.5 226T97 711zm194 0q0-127 32.5-232.5t96-182 158-119T795 135q132 0 227.5 43t157 119.5 91 182.5 29.5 231q0 127-32.5 231t-96 178-157.5 114-217 40q-126 0-221-40t-158.5-114-95-178T291 711z"/><glyph unicode="R" horiz-adv-x="1479" d="M168 0v1409h663q120 0 212.5-27.5T1199 1302t96-127 33-169q0-67-19.5-132T1247 755t-107-93-156-55L1384 0h-220L798 585H359V0H168zm191 736h461q82 0 142 20.5t98.5 56.5 57 85 18.5 106q0 64-22 111t-64 78.5-102 47-136 15.5H359V736z"/><glyph unicode="S" horiz-adv-x="1366" d="M93 338l185 37q14-55 43-100t78.5-77.5T522 147t175-18q85 0 156 14.5T975 188t79.5 77.5T1083 379q0 69-31.5 112T963 562t-136 47-175 41q-59 13-118.5 28.5t-114 37T317 766t-83 69.5-55 94-20 123.5q0 100 40.5 171.5T312 1342t170 67 212 21q131 0 224-20.5t157-61.5 102.5-101.5T1239 1106l-188-33q-14 51-40.5 91t-69.5 67-104.5 41-144.5 14q-98 0-164.5-17.5t-107-47.5-58-70.5T345 1063q0-63 31.5-103.5T462 892t125-45 151-36q65-15 129.5-30.5t123.5-37 110.5-50.5 89.5-71 59.5-99 21.5-134q0-89-34.5-164T1131 95.5t-181.5-85T690-20q-263 0-410 92T93 338z"/><glyph unicode="T" horiz-adv-x="1251" d="M46 1253v156h1158v-156H720V0H530v1253H46z"/><glyph unicode="U" horiz-adv-x="1479" d="M158 512v897h191V528q0-107 28.5-181.5T457 225t120.5-68.5T730 135q82 0 155 22t128 70 86.5 125.5T1131 541v868h190V530q0-141-46.5-244.5T1148 114 960.5 13 731-20q-116 0-220 31t-182.5 96.5-124.5 166T158 512z"/><glyph unicode="V" horiz-adv-x="1366" d="M9 1409h201l390-992q15-45 30-89.5t27-79.5q14-41 27-80 12 37 26 78 12 35 26.5 79t31.5 92l388 992h201L782 0H584z"/><glyph unicode="W" horiz-adv-x="1933" d="M9 1409h199l253-895q17-63 32.5-125T520 278q13-58 24-110 15 69 31 136 7 28 14 59t14.5 61 15 57.5T632 532l245 877h183l245-877q6-23 13.5-50.5t15-57T1348 364t14-59q16-67 31-137 1 0 9 34.5t20 86.5 26.5 112.5T1478 514l249 895h199L1511 0h-228l-244 895q-11 38-23.5 90t-22.5 99q-12 55-24 112-13-58-25-113-11-48-23-99t-23-89L652 0H424z"/><glyph unicode="X" horiz-adv-x="1366" d="M46 0l536 732-495 677h211l392-553 381 553h211L800 739 1323 0h-211L689 616 257 0H46z"/><glyph unicode="Y" horiz-adv-x="1366" d="M45 1409h210l429-671 427 671h210L777 584V0H587v584z"/><glyph unicode="Z" horiz-adv-x="1251" d="M65 0v143l858 1110H138v156h1002v-139L282 156h905V0H65z"/><glyph unicode="[" horiz-adv-x="569" d="M146-425v1909h407v-129H320V-296h233v-129H146z"/><glyph unicode="\" horiz-adv-x="569" d="M0 1484h158L569-20H407z"/><glyph unicode="]" horiz-adv-x="569" d="M16-296h233v1651H16v129h407V-425H16v129z"/><glyph unicode="^" horiz-adv-x="961" d="M10 673l368 736h203l370-736H787l-309 633-306-633H10z"/><glyph unicode="_" d="M-31-277h1193v-130H-31v130z"/><glyph unicode="`" horiz-adv-x="682" d="M106 1479v29h207l217-287v-20h-94z"/><glyph unicode="a" d="M87 302q0 107 40.5 175.5t106 107.5T383 639t171 17l243 4v59q0 67-14 114t-43 76-72.5 42.5T565 965q-52 0-94-7.5t-73-27-50-53-25-84.5l-188 17q10 64 38 117.5t79.5 92.5 129 60.5T569 1102q204 0 307-93.5T979 738V272q0-80 21-120.5t80-40.5q15 0 30 2t29 5V6q-34-8-67.5-12t-71.5-4q-51 0-87.5 13.5t-59.5 41-35 68-15 94.5h-6q-29-52-63.5-94T653 41.5 548.5-4 414-20q-163 0-245 86T87 302zm185-3q0-88 47.5-136T455 115q86 0 150.5 31.5t107 80.5T776 334t21 111v89l-197-4q-66-1-125.5-9.5T370 487t-71.5-70T272 299z"/><glyph unicode="b" d="M132 0q1 9 2 30.5t2 51.5 1.5 66 .5 75v1261h180v-423q0-30-.5-57.5T316 955q-1-25-2-47h4q50 104 132.5 149t204.5 45q205 0 301.5-138t96.5-418q0-566-398-566-123 0-204.5 44.5T318 168h-2q0-26-1.5-54t-3-52-3-41T306 0H132zm186 529q0-116 19-195t55.5-128.5 90.5-71T607 113q66 0 114 23t80 74 47.5 132.5T864 540q0 112-14 192t-45 131.5-79 75.5-117 24q-71 0-125.5-23t-91-74T337 732t-19-203z"/><glyph unicode="c" horiz-adv-x="1024" d="M87 542q0 109 18 192.5t50.5 146 76.5 105 95.5 68 108.5 37 115 11.5q91 0 162-25t122.5-68.5T919 906t45-127l-185-14q-14 90-71 143t-162 53q-77 0-128.5-25.5t-83.5-77T288.5 729 275 546q0-93 13.5-171T334 240.5t84.5-87.5T548 122q96 0 160.5 52T788 334l182-12q-9-67-39-129T849.5 84 724 8.5 553-20q-127 0-216 43T192.5 141.5t-80.5 178T87 542z"/><glyph unicode="d" d="M86 536q0 566 398 566 123 0 205-45t132-143h2q0 10-.5 31.5t-1 45-.5 44.5v449h180V223q0-39 .5-75t1.5-66 2-51.5 2-30.5H835q-2 10-3.5 28.5t-3 42.5-2.5 50.5-1 52.5h-4Q771 70 688.5 25T484-20q-205 0-301.5 138T86 536zm189 6q0-112 14-192t45-131.5 79-75.5 117-24q71 0 125.5 23t91 74.5T802 351t19 203q0 115-19 194.5T746 877t-90.5 70.5T532 969q-66 0-114-23t-80-74-47.5-132.5T275 542z"/><glyph unicode="e" d="M87 548q0 152 38 257.5T229 977t154 95.5 188 29.5q136 0 227.5-44t147-121.5 79-182.5 23.5-227v-24H276q0-85 17.5-156.5t54-123 93.5-80T578 115q117 0 187.5 47T861 281l158-45q-17-45-47.5-90.5t-81.5-82-127.5-60T578-20q-240 0-365.5 143T87 548zm191 93h584q-15 171-87 249.5T568 969q-45 0-94.5-14.5T382 903t-71-100.5T278 641z"/><glyph unicode="f" horiz-adv-x="569" d="M29 951v131h152v122q0 59 11 109.5t40.5 88 80.5 59 132 21.5q32 0 66.5-3t60.5-9v-137q-17 3-39.5 5.5T492 1341q-40 0-65.5-11t-40-31.5-20-50.5-5.5-69v-97h211V951H361V0H181v951H29z"/><glyph unicode="g" d="M86 539q0 130 21.5 234t70 176.5 126 111T492 1099q115 0 199.5-52.5T822 897h2q0 25 1.5 56t3 58.5 3.5 47.5 4 23h171q-1-9-2-30.5t-2-51.5-1.5-66.5-.5-75.5V31q0-227-111.5-341.5T548-425q-93 0-165 19t-123 54.5-83 84.5-46 109l181 26q18-75 79.5-115.5T553-288q61 0 111 17t85 54.5 54 97.5 19 146v174h-2q-20-41-49.5-78.5t-72-66.5T600 9.5 472-8Q369-8 295.5 26.5T175.5 130t-68 171.5T86 539zm186 2q0-117 15.5-196.5T335 216t81-70 117-21q54 0 105.5 23t92.5 73 66 129 25 191q0 113-24.5 193.5T733 866t-91.5 75T536 965q-69 0-118.5-24t-82-75.5-48-132T272 541z"/><glyph unicode="h" d="M142 0v1484h180v-386q0-33-1-66t-2.5-61-2.5-47.5-2-26.5h3q30 55 65 93.5t77 63.5 92 36.5 112 11.5q104 0 170.5-28t105-78.5 53-120.5 14.5-154V0H825v686q0 69-8.5 121T784 893.5t-68 52T602 963q-64 0-115.5-23t-88-65T342 773t-20-135V0H142z"/><glyph unicode="i" horiz-adv-x="455" d="M137 0v1082h180V0H137zm0 1312v172h180v-172H137z"/><glyph unicode="j" horiz-adv-x="455" d="M-50-277q13-2 31-4t31-2q38 0 62.5 10t38.5 31.5 19 55 5 79.5v1189h180V-134q0-62-10.5-115T269-341t-73.5-61.5T77-425q-34 0-66.5 2t-60.5 7v139zm187 1589v172h180v-172H137z"/><glyph unicode="k" horiz-adv-x="1024" d="M138 0v1484h180V557l475 525h211L565 617 1027 0H816L450 494 318 385V0H138z"/><glyph unicode="l" horiz-adv-x="455" d="M138 0v1484h180V0H138z"/><glyph unicode="m" horiz-adv-x="1706" d="M136 1082h170q1-5 2-27t2.5-50.5 3-58 .5-49.5h3q24 47 52 85t65.5 64.5 86 41T633 1102q123 0 194.5-49T927 897h3q24 47 54 85t70 64.5 90 41 114 14.5q82 0 141.5-22t97.5-68 56-118.5 18-172.5V0h-178v686q0 79-10 132t-33.5 85.5-61.5 46-93 13.5q-57 0-103-21.5t-78.5-63.5-50-105T946 627V0H768v686q0 79-10 132t-33.5 85.5-61.5 46-93 13.5q-57 0-103-22.5t-78.5-65-50-105T321 627V0H142v851q0 34-.5 71.5t-1.5 71-2 57.5-2 31z"/><glyph unicode="n" d="M136 1082h170q1-5 2-27t2.5-50.5 3-58 .5-49.5h3q26 47 57 85t72 64.5 94 41 123 14.5q90 0 155-22t107-68 61.5-118.5T1006 721V0H825v686q0 79-11.5 132T776 903.5t-68.5 46T602 963q-64 0-115.5-22.5t-88-65-56.5-105T322 627V0H142v851q0 34-.5 71.5t-1.5 71-2 57.5-2 31z"/><glyph unicode="o" d="M86 542q0 560 485 560 126 0 217.5-35t150-105 86.5-175 28-245q0-284-125-423T565-20q-113 0-202 34T212.5 118t-94 175.5T86 542zm189 0q0-126 22-208.5T357.5 202t91-69T563 113q69 0 125 19.5t95 68.5 60 132 21 209-19.5 208-57 131-91.5 68.5T574 969q-69 0-124.5-20.5t-94.5-70T295.5 747 275 542z"/><glyph unicode="p" d="M132 1082h174q1-3 2.5-21t3-43.5 3-54.5 1.5-55h4q25 52 57 88.5t73 60 91.5 34T655 1101q112 0 188.5-40t123-112.5 66.5-175 20-227.5q0-123-20-227t-66.5-179-123-117.5T655-20q-116 0-203 44T319 168h-5q1-2 1.5-18t1-40 1-53.5T318-2v-423H138V861q0 39-.5 75t-1.5 65.5-2 50.5-2 30zm186-554q0-115 19-194.5T392.5 205t90.5-70.5T607 113q75 0 124.5 29t79 84T852 360.5 864 542q0 100-12 178t-41.5 132-78.5 82-123 28q-60 0-113-17t-92.5-65T341 747.5 318 528z"/><glyph unicode="q" d="M86 536q0 282 98.5 424T484 1102q67 0 118.5-12t92-35.5 71-58.5 55.5-82h2q0 25 1.5 55.5t3 57.5 3.5 46.5 4 22.5h173q-2-17-4.5-89t-2.5-206V-425H821V14q0 26 .5 54t1.5 53q1 28 2 57h-2q-26-51-57.5-88.5t-72.5-62-92.5-36T484-20q-206 0-302 139T86 536zm189 6q0-108 13.5-188t44-132 79-77.5T530 119q60 0 113 18.5t92.5 67 62.5 133T821 554q0 118-20.5 198t-58 128-91 68.5T532 969q-69 0-118-25.5t-79.5-78-45-133T275 542z"/><glyph unicode="r" horiz-adv-x="682" d="M136 1082h170q1-23 2.5-52.5t3-60.5 2-59.5.5-48.5h4q19 62 40.5 107.5t50.5 75 69 44 97 14.5q22 0 42-3.5t31-6.5V927q-18 5-42 7.5t-54 2.5q-62 0-105.5-28t-71-77.5-40.5-118T322 564V0H142v830q0 34-.5 69.5T140 968t-2 62-2 52z"/><glyph unicode="s" horiz-adv-x="1024" d="M57 254l159 31q23-87 95-127.5T511 117q58 0 106.5 8t83.5 27.5 54.5 52T775 285q0 49-23 80.5T688 418t-99.5 36.5T460 489q-65 17-129 38t-115.5 55.5T132 668t-32 128q0 148 105.5 225.5T513 1099q179 0 284.5-63T931 834l-162-20q-9 42-33 70.5t-58 46-76.5 25T513 963q-122 0-180-37t-58-112q0-44 21.5-72.5t60-48 92.5-34T568 629q43-11 88-23.5t87.5-30 80-41T889 478t44.5-77T950 299q0-76-29.5-135.5T835 63.5t-137.5-62T511-20q-94 0-169.5 14.5T209 41t-95.5 84.5T57 254z"/><glyph unicode="t" horiz-adv-x="569" d="M31 951v131h132l53 242h120v-242h200V951H336V268q0-78 25.5-109.5T450 127q26 0 50.5 4t53.5 10V8Q513-3 470.5-9.5T372-16q-216 0-216 245v722H31z"/><glyph unicode="u" d="M133 361v721h181V396q0-79 11.5-132t37.5-85.5 68.5-46T537 119q64 0 115.5 22.5t88 65 56.5 105T817 455v627h180V231q0-34 .5-71.5t1.5-71 2-57.5 2-31H833q-1 5-2 27t-2.5 50.5-2.5 58-1 49.5h-3q-26-47-57-85t-72-64.5-94-41T476-20q-90 0-155 22T214 70t-61.5 118T133 361z"/><glyph unicode="v" horiz-adv-x="1024" d="M7 1082h192l238-704q7-22 16.5-53.5T473 259t18.5-65.5T506 141q6 21 15.5 52.5T541 258t20.5 64.5T580 376l246 706h191L613 0H400z"/><glyph unicode="w" horiz-adv-x="1479" d="M-3 1082h178l183-735q7-23 14-56.5t14-65.5q7-37 15-76 8 38 17 74 8 31 16 63t14 53l196 743h193l189-743q7-26 15-59t15-62q8-34 16-69 8 38 16 74 7 31 14.5 64.5T1117 347l191 735h176L1174 0H965L792 698q-8 27-16.5 67T759 843q-10 44-19 91-9-45-19-89-8-38-17.5-79T686 694L508 0H300z"/><glyph unicode="x" horiz-adv-x="1024" d="M23 0l385 556-367 526h199l270-421 268 421h201L612 558 1002 0H801L510 444 217 0H23z"/><glyph unicode="y" horiz-adv-x="1024" d="M5 1082h192l228-598q10-27 25.5-72l31-90 27.5-81 14-45q3 11 14.5 43.5t26 72.5 29.5 81 25 71l212 618h190L604 0q-38-98-77.5-176.5t-88.5-134-109-85T191-425q-34 0-63 2t-61 9v135q19-3 43-4.5t41-1.5q79 0 147 59T417-38l17 43z"/><glyph unicode="z" horiz-adv-x="1024" d="M49 0v137l661 806H89v139h824V945L251 139h699V0H49z"/><glyph unicode="{" horiz-adv-x="684" d="M34 466v127q51 2 91 16t67.5 42 42 72T249 829v362q0 141 66.5 217t197.5 76h135v-129h-63q-91 0-129.5-53.5T417 1140V784q0-50-15-92t-41-74-61.5-54-76.5-32v-2q43-10 78.5-32t61-54.5 40-74.5 14.5-93V-81q0-106 38.5-160.5T585-296h63v-129H513q-65 0-114.5 20.5T316-346t-50 92-17 122v361q0 63-14.5 107t-42 72-67.5 42-91 16z"/><glyph unicode="|" horiz-adv-x="532" d="M183-434v1918h166V-434H183z"/><glyph unicode="}" horiz-adv-x="684" d="M34-296h60q91 0 130.5 54.5T264-81v357q0 51 14 93t39.5 74.5 61 54.5 78.5 32v2q-42 10-77 32t-61 54-40.5 74-14.5 92v356q0 108-39.5 161.5T94 1355H34v129h132q131 0 197.5-76t66.5-217V829q0-62 14.5-106t42-72 68-42 92.5-16V466q-52-2-92.5-16t-68-42-42-72T430 229v-361q0-68-17-122t-50-92-82.5-58.5T166-425H34v129z"/><glyph unicode="~" horiz-adv-x="1196" d="M92 580v143q50 38 116 61t147 23q40 0 80-6.5t78.5-16.5 76-23 74.5-26q21-8 46-15.5t50.5-14.5 51-11 48.5-4q69 0 130.5 25t113.5 67V633q-32-23-61.5-38t-60-24.5T918 557t-74-4q-69 0-141.5 22T557 623q-129 45-217 45-38 0-70.5-6T207 644.5 149 617t-57-37z"/><glyph unicode="¡" horiz-adv-x="682" d="M242-327l24 1012h148l24-1012H242zm4 1208v201h194V881H246z"/><glyph unicode="¢" d="M135 697q0 150 33 253t88.5 168.5 128.5 97 153 38.5v155h124v-155q78-8 138-35.5t103-70 70-97 39-117.5l-185-14q-14 90-71 143-37 34-94 46V284q54 12 94 45 65 52 80 160l182-12q-8-62-33.5-120T915 253t-107-77-146-39V-31H538v168q-111 10-188 56.5t-124.5 121-69 172T135 697zm188 4q0-93 13.5-171T382 395.5t84-87.5q32-19 72-26v830q-41-6-72-22-52-25-84-76.5T336.5 884 323 701z"/><glyph unicode="£" d="M58 625v129h186v280q0 92 24 165.5t73.5 124.5 125.5 78.5 179 27.5q70 0 131.5-14.5t111-43.5 85-72 53.5-100l-174-57q-10 31-29.5 57t-46 44-59 28-68.5 10q-114 0-170-57.5T424 1042V754h408V625H424V499q0-56-11-109t-33-99-53.5-81.5T255 153h483q38 0 71.5 9.5t60 30.5 45 54.5T941 329l163-18q-9-80-37.5-138.5t-73-97-102-57T767 0H69v154q89 46 132 126t43 201v144H58z"/><glyph unicode="¤" d="M113 330l102 102q-37 54-57.5 117.5T137 684t20.5 134.5T215 936l-100 100 104 103 99-101q54 39 117.5 60.5T572 1120q71 0 134-21t117-59l97 97 104-105-96-96q37-54 58.5-117.5T1008 684t-22-135-60-117l100-100-102-105-101 101q-54-37-117-57.5T572 250q-72 0-136 21t-116 59L215 225zm178 356q0-58 22-109t60.5-89 89.5-60 109-22q57 0 108 22t89.5 60 60.5 89 22 109-22 109-60.5 89-89.5 60.5T572 967q-58 0-109-22.5T373.5 884 313 795t-22-109z"/><glyph unicode="¥" d="M-2 1409h199l371-647 375 647h199L720 709h321V584H658V430h383V303H658V0H480v303H99v127h381l2 154H99v125h320z"/><glyph unicode="¦" horiz-adv-x="532" d="M183 345h166v-779H183v779zm0 361v778h166V706H183z"/><glyph unicode="§" d="M115 100l161 31q12-55 39-88.5t66-52 89-25T577-41q58 0 109 9t89 29 60.5 52.5T858 129q0 54-28.5 90t-76 61.5-109 43.5T518 358q-65 15-130.5 38T270 455.5t-84.5 89T153 671q0 45 16 86.5t45.5 77 71.5 62 95 41.5q-42 14-79.5 37t-66 55-45 72-16.5 88q0 139 105.5 216.5T588 1484q79 0 148-15t123-46.5 90.5-80.5 51.5-118l-161-20q-8 45-31 74t-57 46-76 23.5-88 6.5q-125 0-189.5-39.5T334 1204q0-45 25-77t66.5-55 96-39 113.5-30q68-16 137.5-39T898 904.5t91-89.5 35-129q0-45-14-88.5t-41.5-80-68.5-64-95-40.5q49-21 88.5-46.5t67-57.5 42.5-72.5 15-91.5q0-73-29-131.5t-85-100T766-150t-189-22q-93 0-170 13.5T271.5-113t-98 84T115 100zm198 584q0-46 24.5-79t65.5-57 95-41 114-32q54 1 100.5 13t80.5 35.5 53.5 58.5 19.5 81q0 48-26.5 82.5t-70.5 60-100.5 43T551 880q-58-3-102.5-19.5T374 818t-45.5-60.5T313 684z"/><glyph unicode="¨" horiz-adv-x="682" d="M45 1219v184h165v-184H45zm394 0v184h163v-184H439z"/><glyph unicode="©" horiz-adv-x="1509" d="M31 707q0 100 26 192t73 172.5T243 1218t146.5 113 172.5 73 192 26q150 0 281.5-57t230-155 155-229.5T1477 707q0-100-26-192.5t-73-173-112.5-146-146-112.5-173-73T754-16q-99 0-191.5 26T390 83 243.5 195.5 130 341.5t-73 173T31 707zm95 0q0-131 49.5-245.5t135-200T510 127t244-49q87 0 167.5 22.5t150.5 63 128 98 99 127.5 63.5 150.5T1385 707q0 86-22.5 166.5t-63.5 150-99 127-128 98.5-150.5 63.5T754 1335q-130 0-244-49.5t-199.5-135-135-199.5T126 707zm243 2q0 97 24 175.5t72.5 134 121.5 85 171 29.5q75 0 131-18t96-47.5 67.5-67T1098 924l-114-33q-12 26-31 51t-46.5 44-63.5 30.5-83 11.5q-69 0-118.5-23T560 940.5 513 840t-15-131 16.5-132 50-103 83.5-67 117-24q49 0 86.5 13.5t65.5 36 47.5 50T998 539l115-35q-22-43-51-83.5t-70-72-96.5-50.5T765 279q-101 0-175.5 32T466 400t-73 136-24 173z"/><glyph unicode="ª" horiz-adv-x="758" d="M26 870q0 69 25.5 115t68.5 74 99.5 40 118.5 13l178 4v60q0 46-10.5 76t-30 47.5T428 1324t-63 7q-67 0-107.5-29.5T208 1196l-149 10q7 47 28.5 88t59 72 91.5 48.5 125 17.5q68 0 122.5-14.5t93-44.5 59.5-77.5 21-113.5V874q0-58 14-83t49-25q12 0 23 2.5t20 5.5V670q-19-5-40-9t-43-4q-41 0-69.5 11T565 698.5t-29 45-12 54.5h-4q-38-77-104-112t-156-35q-53 0-96 14.5T90 708t-47.5 69T26 870zm150 13q0-56 29-88.5t94-32.5q48 0 88 17t68.5 44.5 44.5 63 16 72.5v65l-138-4q-41-2-78-7.5t-64.5-20T192 952t-16-69z"/><glyph unicode="«" d="M83 506v63l336 371h167v-31L251 537l337-367v-29H419zm465 0v63l338 371h168v-31L716 537l340-367v-29H886z"/><glyph unicode="¬" horiz-adv-x="1196" d="M100 608v146h995V180H950v428H100z"/><glyph unicode="­" horiz-adv-x="682" d="M91 464v160h500V464H91z"/><glyph unicode="®" horiz-adv-x="1509" d="M31 707q0 100 26 192t73 172.5T243 1218t146.5 113 172.5 73 192 26q150 0 281.5-57t230-155 155-229.5T1477 707q0-100-26-192.5t-73-173-112.5-146-146-112.5-173-73T754-16q-99 0-191.5 26T390 83 243.5 195.5 130 341.5t-73 173T31 707zm95 0q0-131 49.5-245.5t135-200T510 127t244-49q87 0 167.5 22.5t150.5 63 128 98 99 127.5 63.5 150.5T1385 707q0 86-22.5 166.5t-63.5 150-99 127-128 98.5-150.5 63.5T754 1335q-130 0-244-49.5t-199.5-135-135-199.5T126 707zm342-418v831h307q142 0 217.5-63t75.5-174q0-102-52-163.5T879 639l221-350H955L756 625H595V289H468zm127 432h182q80 0 122 42.5T941 881q0 69-47.5 105T765 1022H595V721z"/><glyph unicode="¯" horiz-adv-x="1131" d="M-17 1452v94h1165v-94H-17z"/><glyph unicode="°" horiz-adv-x="819" d="M122 1145q0 60 23 112t62 90.5 91 60.5 111 22 111.5-22 91.5-60.5 61.5-90.5 22.5-112q0-59-22.5-111T612 943.5t-91.5-61T409 860t-111 22.5-91 61-62 90.5-23 111zm109 0q0-37 14-69.5t38-57 56.5-39T409 965q38 0 70.5 14.5t56.5 39 37.5 57T587 1145t-13.5 70-37.5 57.5-56.5 38.5-70.5 14q-37 0-69.5-14t-56.5-38.5-38-57.5-14-70z"/><glyph unicode="±" horiz-adv-x="1124" d="M65 0v145h995V0H65zm0 680v145h424v394h147V825h424V680H636V285H489v395H65z"/><glyph unicode="²" horiz-adv-x="682" d="M41 666q27 61 71 109t94 88.5T307.5 940t92.5 72.5 67 76.5 26 89q0 62-35.5 99.5T348 1315q-68 0-112-36.5T184 1174l-133 8q6 51 29 94.5t61 75.5 91.5 50.5T354 1421q65 0 116.5-16.5t87-46.5 54-73 18.5-97q0-62-27-112t-68.5-93-92.5-80.5-98.5-74T257 755t-57-79h443V563H43z"/><glyph unicode="³" horiz-adv-x="682" d="M27 778l136 13q9-67 53-101.5T345 655q77 0 118.5 36T505 803q0 45-18.5 72T440 916.5t-61.5 19T316 940h-61v109h57q29 0 59.5 6.5t55.5 22 41 42 16 66.5q0 60-37 94.5T339 1315q-68 0-110-35t-48-100l-135 12q7 58 32 101t64.5 71.5T233 1407t110 14q69 0 121-16.5t87-46 52.5-69T621 1204q0-75-43-130t-133-75v-2q52-5 89.5-23.5T596 928t35-61.5 11-71.5q0-116-77.5-180T345 551q-87 0-145 19.5T105.5 622 51 694.5 27 778z"/><glyph unicode="´" horiz-adv-x="682" d="M72 1201v20l217 287h207v-29l-330-278H72z"/><glyph unicode="µ" horiz-adv-x="1180" d="M140-425v1507h181V396q0-78 16-131t45-85.5 71-46.5 94-14q128 0 201 87t73 249v627h180V266q0-44 5.5-72t15.5-44 24.5-22.5 32.5-6.5q11 0 27 2.5t27 5.5V0q-26-8-51.5-14t-61.5-6q-54 0-89.5 15T873 36t-32 61.5-12 76.5h-3Q774 79 700.5 29.5T527-20Q460-20 405.5.5T320 59v-484H140z"/><glyph unicode="¶" horiz-adv-x="1100" d="M80 1049q0 84 25 150.5t72.5 113T294 1384t156 25h563v-102H884V-264H772v1571H555V-264H442v958q-80 0-146.5 22.5T181 783t-74.5 110.5T80 1049z"/><glyph unicode="·" horiz-adv-x="682"/><glyph unicode="¸" horiz-adv-x="682" d="M119-332q49-6 86-6 41 0 69 6t45.5 16.5 25 25.5 7.5 33q0 37-30.5 57T219-180h-28.5l-28.5-2L227 0h107l-39-100q94-3 141-43.5T483-253q0-41-15-74.5T420.5-385 336-421.5 209-434q-20 0-42.5.5T119-430v98z"/><glyph unicode="¹" horiz-adv-x="682" d="M80 563v107h211v620L89 1152v120l210 137h123V670h215V563H80z"/><glyph unicode="º" horiz-adv-x="748" d="M27 1042q0 91 21.5 163.5t65 123 109 77T376 1432q93 0 158.5-26.5T642 1329t61.5-122.5T723 1042q0-188-88-289.5T372 651q-168 0-256.5 100.5T27 1042zm152 0q0-84 14-139t39.5-88 60.5-46 78-13q49 0 86.5 13t63.5 46 39.5 88 13.5 139q0 83-12.5 138t-37.5 87.5-61 46-84 13.5-85.5-13.5-63-46.5-38.5-88-13-137z"/><glyph unicode="»" d="M83 141v29l338 367L85 909v31h168l335-371v-63L253 141H83zm467 0v29l338 367-336 372v31h166l338-371v-63L718 141H550z"/><glyph unicode="¼" horiz-adv-x="1708" d="M56 563v107h211v620L65 1152v120l210 137h123V670h215V563H56zM345 0l881 1409h145L493 0H345zm621 180v111l386 557h151V293h111V180h-111V2h-131v178H966zm127 113h279v360q0 19 .5 36t1.5 26q-7-13-18-31.5t-23-38-23-37-18-28.5z"/><glyph unicode="½" horiz-adv-x="1708" d="M56 563v107h211v620L65 1152v120l210 137h123V670h215V563H56zM345 0l881 1409h145L493 0H345zm706 105q27 61 71 109t94 88.5 101.5 76.5 92.5 72.5 67 76.5 26 89q0 62-35.5 99.5T1358 754q-68 0-112-36.5T1194 613l-133 8q6 51 29 94.5t61 75.5 91.5 50.5T1364 860q65 0 116.5-16.5t87-46.5 54-73 18.5-97q0-62-27-112t-68.5-93-92.5-80.5-98.5-74T1267 194t-57-79h443V2h-600z"/><glyph unicode="¾" horiz-adv-x="1708" d="M73 778l136 13q9-67 53-101.5T391 655q77 0 118.5 36T551 803q0 45-18.5 72T486 916.5t-61.5 19T362 940h-61v109h57q29 0 59.5 6.5t55.5 22 41 42 16 66.5q0 60-37 94.5T385 1315q-68 0-110-35t-48-100l-135 12q7 58 32 101t64.5 71.5T279 1407t110 14q69 0 121-16.5t87-46 52.5-69T667 1204q0-75-43-130t-133-75v-2q52-5 89.5-23.5T642 928t35-61.5 11-71.5q0-116-77.5-180T391 551q-87 0-145 19.5T151.5 622 97 694.5 73 778zM365 0l881 1409h145L513 0H365zm601 180v111l386 557h151V293h111V180h-111V2h-131v178H966zm127 113h279v360q0 19 .5 36t1.5 26q-7-13-18-31.5t-23-38-23-37-18-28.5z"/><glyph unicode="¿" horiz-adv-x="1251" d="M131 50q0 71 18.5 125t49.5 96.5 70.5 76T350 411t80.5 59 71 63 51 75.5T573 705h175q-2-69-21.5-121T676 492t-70-71.5-79-60-78.5-57T380 240t-48.5-79T313 58t21-105 59.5-77.5 93-47.5T608-188q140 0 222 70t96 192l184-12q-11-84-44.5-158.5t-94-130.5-150-88.5T610-348q-114 0-203 28t-150.5 79.5-93.5 125T131 50zm430 831v201h195V881H561z"/><glyph unicode="À" horiz-adv-x="1366" d="M4 0l575 1409h217L1362 0h-195l-161 412H364L202 0H4zm418 561h527l-181 465q-16 40-30.5 81t-25.5 74.5-18.5 56-8.5 27.5q-2-5-9-28t-18.5-57-26-75-29.5-81zm18 1186v29h207l217-226v-20H750z"/><glyph unicode="Á" horiz-adv-x="1366" d="M4 0l575 1409h217L1362 0h-195l-161 412H364L202 0H4zm418 561h527l-181 465q-16 40-30.5 81t-25.5 74.5-18.5 56-8.5 27.5q-2-5-9-28t-18.5-57-26-75-29.5-81zm125 969v20l217 226h207v-29l-310-217H547z"/><glyph unicode="Â" horiz-adv-x="1366" d="M4 0l575 1409h217L1362 0h-195l-161 412H364L202 0H4zm348 1530v20l234 240h204l224-240v-20H909l-219 139h-2l-232-139H352zm70-969h527l-181 465q-16 40-30.5 81t-25.5 74.5-18.5 56-8.5 27.5q-2-5-9-28t-18.5-57-26-75-29.5-81z"/><glyph unicode="Ã" horiz-adv-x="1366" d="M4 0l575 1409h217L1362 0h-195l-161 412H364L202 0H4zm323 1530q5 45 15 92.5t32.5 86.5 59.5 64 96 25q44 0 86-18.5t81-41 73.5-41T835 1679q54 0 81.5 31.5T952 1798h92q-5-44-15-91.5t-31.5-86.5-58.5-64.5-97-25.5q-42 0-84 18.5t-81 41-74.5 41T536 1649q-55 0-82-31t-36-88h-91zm95-969h527l-181 465q-16 40-30.5 81t-25.5 74.5-18.5 56-8.5 27.5q-2-5-9-28t-18.5-57-26-75-29.5-81z"/><glyph unicode="Ä" horiz-adv-x="1366" d="M4 0l575 1409h217L1362 0h-195l-161 412H364L202 0H4zm405 1530v184h165v-184H409zm13-969h527l-181 465q-16 40-30.5 81t-25.5 74.5-18.5 56-8.5 27.5q-2-5-9-28t-18.5-57-26-75-29.5-81zm381 969v184h163v-184H803z"/><glyph unicode="Å" horiz-adv-x="1366" d="M4 0l575 1409h217L1362 0h-195l-161 412H364L202 0H4zm418 561h527l-181 465q-16 40-30.5 81t-25.5 74.5-18.5 56-8.5 27.5q-2-5-9-28t-18.5-57-26-75-29.5-81zm22 985q0 50 19 94t52 76.5 77 51.5 94 19 94-19 77-51.5 52-76.5 19-94-19-94-52-77-77-52-94-19-94 19-77 52-52 77-19 94zm107 0q0-29 10.5-53.5T590 1449t42.5-29.5T686 1409q28 0 52.5 10.5T781 1449t28.5 43.5T820 1546q0 28-10.5 52.5T781 1641t-42.5 28.5T686 1680q-29 0-53.5-10.5T590 1641t-28.5-42.5T551 1546z"/><glyph unicode="Æ" horiz-adv-x="2048" d="M24 0l686 1409h1209v-156h-759V801h699V647h-699V156h800V0H969v412H421L223 0H24zm467 561h478v701H818q-1-3-9-20.5t-19-42.5-24.5-54-25.5-54.5-21-44.5-11-24z"/><glyph unicode="Ç" horiz-adv-x="1479" d="M104 711q0 165 45.5 298t133 226.5 215.5 144 292 50.5q225 0 376-88t222-261l-181-60q-20 50-54 95.5t-85 80.5-119.5 56-156.5 21q-120 0-212.5-40t-155-114T330 942t-32-231 34.5-232.5 99-181.5 158-118T800 137q82 0 149.5 21.5t122 60.5 97.5 92.5 76 118.5l156-78q-38-79-94-147T1175.5 87t-171-78.5T791-20q-171 0-299.5 54.5t-215 152T147 418t-43 293zM629-332q49-6 86-6 41 0 69 6t45.5 16.5 25 25.5 7.5 33q0 37-30.5 57T729-180h-28.5l-28.5-2L737 0h107l-39-100q94-3 141-43.5T993-253q0-41-15-74.5T930.5-385 846-421.5 719-434q-20 0-42.5.5T629-430v98z"/><glyph unicode="È" horiz-adv-x="1366" d="M168 0v1409h1069v-156H359V801h818V647H359V156h919V0H168zm257 1747v29h207l217-226v-20H735z"/><glyph unicode="É" horiz-adv-x="1366" d="M168 0v1409h1069v-156H359V801h818V647H359V156h919V0H168zm383 1530v20l217 226h207v-29l-310-217H551z"/><glyph unicode="Ê" horiz-adv-x="1366" d="M168 0v1409h1069v-156H359V801h818V647H359V156h919V0H168zm207 1530v20l234 240h204l224-240v-20H932l-219 139h-2l-232-139H375z"/><glyph unicode="Ë" horiz-adv-x="1366" d="M168 0v1409h1069v-156H359V801h818V647H359V156h919V0H168zm254 1530v184h165v-184H422zm394 0v184h163v-184H816z"/><glyph unicode="Ì" horiz-adv-x="569" d="M9 1747v29h207l217-226v-20H319zM189 0v1409h191V0H189z"/><glyph unicode="Í" horiz-adv-x="569" d="M142 1530v20l217 226h207v-29l-310-217H142zM189 0v1409h191V0H189z"/><glyph unicode="Î" horiz-adv-x="569" d="M-46 1530v20l234 240h204l224-240v-20H511l-219 139h-2L58 1530H-46zM189 0v1409h191V0H189z"/><glyph unicode="Ï" horiz-adv-x="569" d="M7 1530v184h165v-184H7zM189 0v1409h191V0H189zm212 1530v184h163v-184H401z"/><glyph unicode="Ð" horiz-adv-x="1479" d="M14 647v154h154v608h466q163 0 300.5-40.5t236.5-125 154.5-214.5 55.5-310q0-176-53-310.5t-145-225-217.5-137T695 0H168v647H14zm345-494h314q111 0 205.5 36T1042 296t108 177 39 246q0 143-41 244.5T1033 1130t-177 95.5-226 30.5H359V801h406V647H359V153z"/><glyph unicode="Ñ" horiz-adv-x="1479" d="M168 0v1409h222l762-1208-6 98q-2 42-4 91.5t-2 94.5v924h172V0h-230L328 1200q2-49 5-97 2-41 3.5-86.5T338 936V0H168zm226 1530q5 45 15 92.5t32.5 86.5 59.5 64 96 25q44 0 86-18.5t81-41 73.5-41T902 1679q54 0 81.5 31.5t35.5 87.5h92q-5-44-15-91.5t-31.5-86.5-58.5-64.5-97-25.5q-42 0-84 18.5t-81 41-74.5 41T603 1649q-55 0-82-31t-36-88h-91z"/><glyph unicode="Ò" horiz-adv-x="1593" d="M97 711q0 165 46 298t135 226.5 219.5 144T797 1430q168 0 298.5-51t219-145 134.5-227 46-296q0-165-47.5-300T1310 180 1090 32 795-20q-174 0-305 54.5t-218 152T141 418 97 711zm194 0q0-127 32.5-232.5t96-182 158-119T795 135q132 0 227.5 43t157 119.5 91 182.5 29.5 231q0 127-32.5 231t-96 178-157.5 114-217 40q-126 0-221-40t-158.5-114-95-178T291 711zm253 1036v29h207l217-226v-20H854z"/><glyph unicode="Ó" horiz-adv-x="1593" d="M97 711q0 165 46 298t135 226.5 219.5 144T797 1430q168 0 298.5-51t219-145 134.5-227 46-296q0-165-47.5-300T1310 180 1090 32 795-20q-174 0-305 54.5t-218 152T141 418 97 711zm194 0q0-127 32.5-232.5t96-182 158-119T795 135q132 0 227.5 43t157 119.5 91 182.5 29.5 231q0 127-32.5 231t-96 178-157.5 114-217 40q-126 0-221-40t-158.5-114-95-178T291 711zm330 819v20l217 226h207v-29l-310-217H621z"/><glyph unicode="Ô" horiz-adv-x="1593" d="M97 711q0 165 46 298t135 226.5 219.5 144T797 1430q168 0 298.5-51t219-145 134.5-227 46-296q0-165-47.5-300T1310 180 1090 32 795-20q-174 0-305 54.5t-218 152T141 418 97 711zm194 0q0-127 32.5-232.5t96-182 158-119T795 135q132 0 227.5 43t157 119.5 91 182.5 29.5 231q0 127-32.5 231t-96 178-157.5 114-217 40q-126 0-221-40t-158.5-114-95-178T291 711zm178 819v20l234 240h204l224-240v-20h-105l-219 139h-2l-232-139H469z"/><glyph unicode="Õ" horiz-adv-x="1593" d="M97 711q0 165 46 298t135 226.5 219.5 144T797 1430q168 0 298.5-51t219-145 134.5-227 46-296q0-165-47.5-300T1310 180 1090 32 795-20q-174 0-305 54.5t-218 152T141 418 97 711zm194 0q0-127 32.5-232.5t96-182 158-119T795 135q132 0 227.5 43t157 119.5 91 182.5 29.5 231q0 127-32.5 231t-96 178-157.5 114-217 40q-126 0-221-40t-158.5-114-95-178T291 711zm135 819q5 45 15 92.5t32.5 86.5 59.5 64 96 25q44 0 86-18.5t81-41 73.5-41T934 1679q54 0 81.5 31.5t35.5 87.5h92q-5-44-15-91.5t-31.5-86.5-58.5-64.5-97-25.5q-42 0-84 18.5t-81 41-74.5 41T635 1649q-55 0-82-31t-36-88h-91z"/><glyph unicode="Ö" horiz-adv-x="1593" d="M97 711q0 165 46 298t135 226.5 219.5 144T797 1430q168 0 298.5-51t219-145 134.5-227 46-296q0-165-47.5-300T1310 180 1090 32 795-20q-174 0-305 54.5t-218 152T141 418 97 711zm194 0q0-127 32.5-232.5t96-182 158-119T795 135q132 0 227.5 43t157 119.5 91 182.5 29.5 231q0 127-32.5 231t-96 178-157.5 114-217 40q-126 0-221-40t-158.5-114-95-178T291 711zm225 819v184h165v-184H516zm394 0v184h163v-184H910z"/><glyph unicode="×" horiz-adv-x="1196" d="M142 330l354 354-352 352 104 103 350-353 350 351 105-105-350-348 352-352-102-105-353 353-356-355z"/><glyph unicode="Ø" horiz-adv-x="1593" d="M71-53l200 241q-88 97-131 230T97 711q0 165 46 298t135 226.5 219.5 144T797 1430q125 0 228.5-28t185.5-82l121 146h192l-201-242q85-94 128.5-223.5T1495 711q0-165-47.5-300T1310 180 1090 32 795-20Q668-20 565 9T381 92L261-53H71zm220 764q0-113 25-208t76-170l707 853q-59 42-134.5 65T797 1274q-126 0-221-40t-158.5-114-95-178T291 711zm202-485q59-44 134-67.5T795 135q132 0 227.5 43t157 119.5 91 182.5 29.5 231q0 112-24.5 204t-73.5 164z"/><glyph unicode="Ù" horiz-adv-x="1479" d="M158 512v897h191V528q0-107 28.5-181.5T457 225t120.5-68.5T730 135q82 0 155 22t128 70 86.5 125.5T1131 541v868h190V530q0-141-46.5-244.5T1148 114 960.5 13 731-20q-116 0-220 31t-182.5 96.5-124.5 166T158 512zm345 1235v29h207l217-226v-20H813z"/><glyph unicode="Ú" horiz-adv-x="1479" d="M158 512v897h191V528q0-107 28.5-181.5T457 225t120.5-68.5T730 135q82 0 155 22t128 70 86.5 125.5T1131 541v868h190V530q0-141-46.5-244.5T1148 114 960.5 13 731-20q-116 0-220 31t-182.5 96.5-124.5 166T158 512zm407 1018v20l217 226h207v-29l-310-217H565z"/><glyph unicode="Û" horiz-adv-x="1479" d="M158 512v897h191V528q0-107 28.5-181.5T457 225t120.5-68.5T730 135q82 0 155 22t128 70 86.5 125.5T1131 541v868h190V530q0-141-46.5-244.5T1148 114 960.5 13 731-20q-116 0-220 31t-182.5 96.5-124.5 166T158 512zm250 1018v20l234 240h204l224-240v-20H965l-219 139h-2l-232-139H408z"/><glyph unicode="Ü" horiz-adv-x="1479" d="M158 512v897h191V528q0-107 28.5-181.5T457 225t120.5-68.5T730 135q82 0 155 22t128 70 86.5 125.5T1131 541v868h190V530q0-141-46.5-244.5T1148 114 960.5 13 731-20q-116 0-220 31t-182.5 96.5-124.5 166T158 512zm301 1018v184h165v-184H459zm394 0v184h163v-184H853z"/><glyph unicode="Ý" horiz-adv-x="1366" d="M45 1409h210l429-671 427 671h210L777 584V0H587v584zm491 121v20l217 226h207v-29l-310-217H536z"/><glyph unicode="Þ" horiz-adv-x="1366" d="M168 0v1409h191v-252h402q125 0 218-30t155-85.5 93-133.5 31-173q0-88-29.5-167.5t-90-139.5T987 332.5 773 297H359V0H168zm191 438h387q82 0 142.5 22t100 61.5 58.5 93 19 116.5q0 134-82 208.5T738 1014H359V438z"/><glyph unicode="ß" horiz-adv-x="1251" d="M142 0v1027q0 118 31.5 204.5T265 1374t147 83 197 27q102 0 179.5-23t130-63 79-94.5T1024 1187q0-61-16.5-106t-42-79.5-54.5-61-54.5-50-42-47.5-16.5-52q0-38 27.5-67.5t68.5-58 88.5-60.5 88.5-74.5 68.5-99.5 27.5-136q0-66-20.5-123.5t-64-100T971 4.5 809-20q-80 0-154 12.5T526 29l-2 164q25-14 58.5-26.5t70.5-22 76-15 76-5.5q92 0 141 43t49 122q0 56-27 94.5T900.5 453t-88 59.5-88 65T657 663t-27 122q0 51 16.5 87.5t41 65.5 53.5 53 53.5 50 41 57.5T852 1173q0 37-16.5 68t-48 53.5T711 1330t-102 13q-68 0-121.5-17.5t-90-56-56-99.5-19.5-149V0H142z"/><glyph unicode="à" d="M87 302q0 107 40.5 175.5t106 107.5T383 639t171 17l243 4v59q0 67-14 114t-43 76-72.5 42.5T565 965q-52 0-94-7.5t-73-27-50-53-25-84.5l-188 17q10 64 38 117.5t79.5 92.5 129 60.5T569 1102q204 0 307-93.5T979 738V272q0-80 21-120.5t80-40.5q15 0 30 2t29 5V6q-34-8-67.5-12t-71.5-4q-51 0-87.5 13.5t-59.5 41-35 68-15 94.5h-6q-29-52-63.5-94T653 41.5 548.5-4 414-20q-163 0-245 86T87 302zm185-3q0-88 47.5-136T455 115q86 0 150.5 31.5t107 80.5T776 334t21 111v89l-197-4q-66-1-125.5-9.5T370 487t-71.5-70T272 299zm22 1180v29h207l217-287v-20h-94z"/><glyph unicode="á" d="M87 302q0 107 40.5 175.5t106 107.5T383 639t171 17l243 4v59q0 67-14 114t-43 76-72.5 42.5T565 965q-52 0-94-7.5t-73-27-50-53-25-84.5l-188 17q10 64 38 117.5t79.5 92.5 129 60.5T569 1102q204 0 307-93.5T979 738V272q0-80 21-120.5t80-40.5q15 0 30 2t29 5V6q-34-8-67.5-12t-71.5-4q-51 0-87.5 13.5t-59.5 41-35 68-15 94.5h-6q-29-52-63.5-94T653 41.5 548.5-4 414-20q-163 0-245 86T87 302zm185-3q0-88 47.5-136T455 115q86 0 150.5 31.5t107 80.5T776 334t21 111v89l-197-4q-66-1-125.5-9.5T370 487t-71.5-70T272 299zm140 902v20l217 287h207v-29l-330-278h-94z"/><glyph unicode="â" d="M87 302q0 107 40.5 175.5t106 107.5T383 639t171 17l243 4v59q0 67-14 114t-43 76-72.5 42.5T565 965q-52 0-94-7.5t-73-27-50-53-25-84.5l-188 17q10 64 38 117.5t79.5 92.5 129 60.5T569 1102q204 0 307-93.5T979 738V272q0-80 21-120.5t80-40.5q15 0 30 2t29 5V6q-34-8-67.5-12t-71.5-4q-51 0-87.5 13.5t-59.5 41-35 68-15 94.5h-6q-29-52-63.5-94T653 41.5 548.5-4 414-20q-163 0-245 86T87 302zm131 899v20l234 270h204l224-270v-20H775l-219 169h-2l-232-169H218zm54-902q0-88 47.5-136T455 115q86 0 150.5 31.5t107 80.5T776 334t21 111v89l-197-4q-66-1-125.5-9.5T370 487t-71.5-70T272 299z"/><glyph unicode="ã" d="M87 302q0 107 40.5 175.5t106 107.5T383 639t171 17l243 4v59q0 67-14 114t-43 76-72.5 42.5T565 965q-52 0-94-7.5t-73-27-50-53-25-84.5l-188 17q10 64 38 117.5t79.5 92.5 129 60.5T569 1102q204 0 307-93.5T979 738V272q0-80 21-120.5t80-40.5q15 0 30 2t29 5V6q-34-8-67.5-12t-71.5-4q-51 0-87.5 13.5t-59.5 41-35 68-15 94.5h-6q-29-52-63.5-94T653 41.5 548.5-4 414-20q-163 0-245 86T87 302zm135 899q5 45 15 92.5t32.5 86.5 59.5 64 96 25q44 0 86-18.5t81-41 73.5-41T730 1350q54 0 81.5 31.5T847 1469h92q-5-44-15-91.5t-31.5-86.5-58.5-64.5-97-25.5q-42 0-84 18.5t-81 41-74.5 41T431 1320q-55 0-82-31t-36-88h-91zm50-902q0-88 47.5-136T455 115q86 0 150.5 31.5t107 80.5T776 334t21 111v89l-197-4q-66-1-125.5-9.5T370 487t-71.5-70T272 299z"/><glyph unicode="ä" d="M87 302q0 107 40.5 175.5t106 107.5T383 639t171 17l243 4v59q0 67-14 114t-43 76-72.5 42.5T565 965q-52 0-94-7.5t-73-27-50-53-25-84.5l-188 17q10 64 38 117.5t79.5 92.5 129 60.5T569 1102q204 0 307-93.5T979 738V272q0-80 21-120.5t80-40.5q15 0 30 2t29 5V6q-34-8-67.5-12t-71.5-4q-51 0-87.5 13.5t-59.5 41-35 68-15 94.5h-6q-29-52-63.5-94T653 41.5 548.5-4 414-20q-163 0-245 86T87 302zm185-3q0-88 47.5-136T455 115q86 0 150.5 31.5t107 80.5T776 334t21 111v89l-197-4q-66-1-125.5-9.5T370 487t-71.5-70T272 299zm8 920v184h165v-184H280zm394 0v184h163v-184H674z"/><glyph unicode="å" d="M87 302q0 107 40.5 175.5t106 107.5T383 639t171 17l243 4v59q0 67-14 114t-43 76-72.5 42.5T565 965q-52 0-94-7.5t-73-27-50-53-25-84.5l-188 17q10 64 38 117.5t79.5 92.5 129 60.5T569 1102q204 0 307-93.5T979 738V272q0-80 21-120.5t80-40.5q15 0 30 2t29 5V6q-34-8-67.5-12t-71.5-4q-51 0-87.5 13.5t-59.5 41-35 68-15 94.5h-6q-29-52-63.5-94T653 41.5 548.5-4 414-20q-163 0-245 86T87 302zm185-3q0-88 47.5-136T455 115q86 0 150.5 31.5t107 80.5T776 334t21 111v89l-197-4q-66-1-125.5-9.5T370 487t-71.5-70T272 299zm43 1111q0 50 19 94t52 76.5 77 51.5 94 19 94-19 77-51.5 52-76.5 19-94-19-94-52-77-77-52-94-19-94 19-77 52-52 77-19 94zm107 0q0-29 10.5-53.5T461 1313t42.5-29.5T557 1273q28 0 52.5 10.5T652 1313t28.5 43.5T691 1410q0 28-10.5 52.5T652 1505t-42.5 28.5T557 1544q-29 0-53.5-10.5T461 1505t-28.5-42.5T422 1410z"/><glyph unicode="æ" horiz-adv-x="1821" d="M66 302q0 71 19 125t52.5 93 79 64.5 99 41.5 112 22.5T546 656l240 4v59q0 67-13 114t-41.5 76-72.5 42.5T554 965q-54 0-98-7.5t-76-27-51.5-53T302 793l-188 17q10 64 39 117.5t81.5 92.5 132 60.5T558 1102q128 0 214-35t135-104q63 74 151.5 106.5T1253 1102q136 0 227.5-44t147-121.5 79-182.5 23.5-227v-24H968v-17q1-82 18-150t52-117 89.5-76.5T1260 115q117 0 187.5 47t95.5 119l158-45q-17-45-47.5-90.5t-81.5-82-127.5-60T1260-20q-321 0-423 257-29-51-66-97.5t-88-82T563.5 1 402-20q-167 0-251.5 86T66 302zm185-3q0-87 50-135.5T444 115q90 0 154.5 31.5t106 80.5T766 334t20 111v89l-195-4q-40-1-80.5-4T432 514t-71-24.5-57.5-41-38.5-62-14-87.5zm719 342h574q-15 171-87 249.5T1250 969q-45 0-93-14.5t-88.5-51.5-67.5-100.5T970 641z"/><glyph unicode="ç" horiz-adv-x="1024" d="M87 542q0 109 18 192.5t50.5 146 76.5 105 95.5 68 108.5 37 115 11.5q91 0 162-25t122.5-68.5T919 906t45-127l-185-14q-14 90-71 143t-162 53q-77 0-128.5-25.5t-83.5-77T288.5 729 275 546q0-93 13.5-171T334 240.5t84.5-87.5T548 122q96 0 160.5 52T788 334l182-12q-9-67-39-129T849.5 84 724 8.5 553-20q-127 0-216 43T192.5 141.5t-80.5 178T87 542zm300-874q49-6 86-6 41 0 69 6t45.5 16.5 25 25.5 7.5 33q0 37-30.5 57T487-180h-28.5l-28.5-2L495 0h107l-39-100q94-3 141-43.5T751-253q0-41-15-74.5T688.5-385 604-421.5 477-434q-20 0-42.5.5T387-430v98z"/><glyph unicode="è" d="M87 548q0 152 38 257.5T229 977t154 95.5 188 29.5q136 0 227.5-44t147-121.5 79-182.5 23.5-227v-24H276q0-85 17.5-156.5t54-123 93.5-80T578 115q117 0 187.5 47T861 281l158-45q-17-45-47.5-90.5t-81.5-82-127.5-60T578-20q-240 0-365.5 143T87 548zm191 93h584q-15 171-87 249.5T568 969q-45 0-94.5-14.5T382 903t-71-100.5T278 641zm49 838v29h207l217-287v-20h-94z"/><glyph unicode="é" d="M87 548q0 152 38 257.5T229 977t154 95.5 188 29.5q136 0 227.5-44t147-121.5 79-182.5 23.5-227v-24H276q0-85 17.5-156.5t54-123 93.5-80T578 115q117 0 187.5 47T861 281l158-45q-17-45-47.5-90.5t-81.5-82-127.5-60T578-20q-240 0-365.5 143T87 548zm191 93h584q-15 171-87 249.5T568 969q-45 0-94.5-14.5T382 903t-71-100.5T278 641zm162 560v20l217 287h207v-29l-330-278h-94z"/><glyph unicode="ê" d="M87 548q0 152 38 257.5T229 977t154 95.5 188 29.5q136 0 227.5-44t147-121.5 79-182.5 23.5-227v-24H276q0-85 17.5-156.5t54-123 93.5-80T578 115q117 0 187.5 47T861 281l158-45q-17-45-47.5-90.5t-81.5-82-127.5-60T578-20q-240 0-365.5 143T87 548zm158 653v20l234 270h204l224-270v-20H802l-219 169h-2l-232-169H245zm33-560h584q-15 171-87 249.5T568 969q-45 0-94.5-14.5T382 903t-71-100.5T278 641z"/><glyph unicode="ë" d="M87 548q0 152 38 257.5T229 977t154 95.5 188 29.5q136 0 227.5-44t147-121.5 79-182.5 23.5-227v-24H276q0-85 17.5-156.5t54-123 93.5-80T578 115q117 0 187.5 47T861 281l158-45q-17-45-47.5-90.5t-81.5-82-127.5-60T578-20q-240 0-365.5 143T87 548zm191 93h584q-15 171-87 249.5T568 969q-45 0-94.5-14.5T382 903t-71-100.5T278 641zm15 578v184h165v-184H293zm394 0v184h163v-184H687z"/><glyph unicode="ì" horiz-adv-x="569" d="M10 1479v29h207l217-287v-20h-94zM194 0v1082h180V0H194z"/><glyph unicode="í" horiz-adv-x="569" d="M135 1201v20l217 287h207v-29l-330-278h-94zM194 0v1082h180V0H194z"/><glyph unicode="î" horiz-adv-x="569" d="M-45 1201v20l234 270h204l224-270v-20H512l-219 169h-2L59 1201H-45zM194 0v1082h180V0H194z"/><glyph unicode="ï" horiz-adv-x="569" d="M8 1219v184h165v-184H8zM194 0v1082h180V0H194zm208 1219v184h163v-184H402z"/><glyph unicode="ð" d="M86 481q0 107 26 198t84 158 151 104.5T573 979q71 0 129.5-16T804 920q-43 86-100.5 174T570 1251l-301-133v114l218 94q-56 45-116 84t-126 74h209q45-20 86.5-45.5T624 1382l306 132-1-112-211-92q81-74 145.5-162T972 960t67.5-211.5T1063 516v-6q0-122-28.5-220T946 123 792 17 566-20q-125 0-215.5 36.5T201 119t-87 158.5T86 481zm189 0q0-190 72-279t217-89q81 0 140 22t96.5 67T856 316.5 874 481q0 94-16.5 162.5t-52 113.5-92 67T577 846q-81 0-138.5-22.5t-94-68.5-53-114.5T275 481z"/><glyph unicode="ñ" d="M140 1082h170q1-5 2-27t2.5-50.5 2.5-58 1-49.5h3q26 47 57 85t72 64.5 94 41 123 14.5q90 0 155-22t107-68 61.5-118.5T1010 721V0H829v686q0 79-11.5 132T780 903.5t-68.5 46T606 963q-64 0-115.5-22.5t-88-65-56.5-105T326 627V0H146v851q0 34-.5 71.5t-1.5 71-2 57.5-2 31zm82 119q5 45 15 92.5t32.5 86.5 59.5 64 96 25q44 0 86-18.5t81-41 73.5-41T730 1350q54 0 81.5 31.5T847 1469h92q-5-44-15-91.5t-31.5-86.5-58.5-64.5-97-25.5q-42 0-84 18.5t-81 41-74.5 41T431 1320q-55 0-82-31t-36-88h-91z"/><glyph unicode="ò" d="M86 542q0 560 485 560 126 0 217.5-35t150-105 86.5-175 28-245q0-284-125-423T565-20q-113 0-202 34T212.5 118t-94 175.5T86 542zm189 0q0-126 22-208.5T357.5 202t91-69T563 113q69 0 125 19.5t95 68.5 60 132 21 209-19.5 208-57 131-91.5 68.5T574 969q-69 0-124.5-20.5t-94.5-70T295.5 747 275 542zm54 937v29h207l217-287v-20h-94z"/><glyph unicode="ó" d="M86 542q0 560 485 560 126 0 217.5-35t150-105 86.5-175 28-245q0-284-125-423T565-20q-113 0-202 34T212.5 118t-94 175.5T86 542zm189 0q0-126 22-208.5T357.5 202t91-69T563 113q69 0 125 19.5t95 68.5 60 132 21 209-19.5 208-57 131-91.5 68.5T574 969q-69 0-124.5-20.5t-94.5-70T295.5 747 275 542zm156 659v20l217 287h207v-29l-330-278h-94z"/><glyph unicode="ô" d="M86 542q0 560 485 560 126 0 217.5-35t150-105 86.5-175 28-245q0-284-125-423T565-20q-113 0-202 34T212.5 118t-94 175.5T86 542zm154 659v20l234 270h204l224-270v-20H797l-219 169h-2l-232-169H240zm35-659q0-126 22-208.5T357.5 202t91-69T563 113q69 0 125 19.5t95 68.5 60 132 21 209-19.5 208-57 131-91.5 68.5T574 969q-69 0-124.5-20.5t-94.5-70T295.5 747 275 542z"/><glyph unicode="õ" d="M86 542q0 560 485 560 126 0 217.5-35t150-105 86.5-175 28-245q0-284-125-423T565-20q-113 0-202 34T212.5 118t-94 175.5T86 542zm138 659q5 45 15 92.5t32.5 86.5 59.5 64 96 25q44 0 86-18.5t81-41 73.5-41T732 1350q54 0 81.5 31.5T849 1469h92q-5-44-15-91.5t-31.5-86.5-58.5-64.5-97-25.5q-42 0-84 18.5t-81 41-74.5 41T433 1320q-55 0-82-31t-36-88h-91zm51-659q0-126 22-208.5T357.5 202t91-69T563 113q69 0 125 19.5t95 68.5 60 132 21 209-19.5 208-57 131-91.5 68.5T574 969q-69 0-124.5-20.5t-94.5-70T295.5 747 275 542z"/><glyph unicode="ö" d="M86 542q0 560 485 560 126 0 217.5-35t150-105 86.5-175 28-245q0-284-125-423T565-20q-113 0-202 34T212.5 118t-94 175.5T86 542zm189 0q0-126 22-208.5T357.5 202t91-69T563 113q69 0 125 19.5t95 68.5 60 132 21 209-19.5 208-57 131-91.5 68.5T574 969q-69 0-124.5-20.5t-94.5-70T295.5 747 275 542zm20 677v184h165v-184H295zm394 0v184h163v-184H689z"/><glyph unicode="÷" horiz-adv-x="1124" d="M65 608v146h995V608H65zm413-385v183h168V223H478zm0 735v183h168V958H478z"/><glyph unicode="ø" horiz-adv-x="1251" d="M44-38l184 214q-41 68-62 159t-21 207q0 560 485 560 103 0 181-23t135-68l91 105h167l-173-201q42-69 61.5-161.5T1112 542q0-284-125-423T624-20q-97 0-175 24T311 78L211-38H44zm290 580q0-130 24-215l482 561q-37 45-89 63t-118 18q-69 0-124.5-20.5t-94.5-70T354.5 747 334 542zm83-341q38-49 90.5-68.5T622 113q69 0 125 19.5t95 68.5 60 132 21 209q0 68-6 122.5T900 763z"/><glyph unicode="ù" d="M139 361v721h181V396q0-79 11.5-132t37.5-85.5 68.5-46T543 119q64 0 115.5 22.5t88 65 56.5 105T823 455v627h180V231q0-34 .5-71.5t1.5-71 2-57.5 2-31H839q-1 5-2 27t-2.5 50.5-2.5 58-1 49.5h-3q-26-47-57-85t-72-64.5-94-41T482-20q-90 0-155 22T220 70t-61.5 118T139 361zm203 1118v29h207l217-287v-20h-94z"/><glyph unicode="ú" d="M139 361v721h181V396q0-79 11.5-132t37.5-85.5 68.5-46T543 119q64 0 115.5 22.5t88 65 56.5 105T823 455v627h180V231q0-34 .5-71.5t1.5-71 2-57.5 2-31H839q-1 5-2 27t-2.5 50.5-2.5 58-1 49.5h-3q-26-47-57-85t-72-64.5-94-41T482-20q-90 0-155 22T220 70t-61.5 118T139 361zm276 840v20l217 287h207v-29l-330-278h-94z"/><glyph unicode="û" d="M139 361v721h181V396q0-79 11.5-132t37.5-85.5 68.5-46T543 119q64 0 115.5 22.5t88 65 56.5 105T823 455v627h180V231q0-34 .5-71.5t1.5-71 2-57.5 2-31H839q-1 5-2 27t-2.5 50.5-2.5 58-1 49.5h-3q-26-47-57-85t-72-64.5-94-41T482-20q-90 0-155 22T220 70t-61.5 118T139 361zm100 840v20l234 270h204l224-270v-20H796l-219 169h-2l-232-169H239z"/><glyph unicode="ü" d="M139 361v721h181V396q0-79 11.5-132t37.5-85.5 68.5-46T543 119q64 0 115.5 22.5t88 65 56.5 105T823 455v627h180V231q0-34 .5-71.5t1.5-71 2-57.5 2-31H839q-1 5-2 27t-2.5 50.5-2.5 58-1 49.5h-3q-26-47-57-85t-72-64.5-94-41T482-20q-90 0-155 22T220 70t-61.5 118T139 361zm143 858v184h165v-184H282zm394 0v184h163v-184H676z"/><glyph unicode="ý" horiz-adv-x="1024" d="M5 1082h192l228-598q10-27 25.5-72l31-90 27.5-81 14-45q3 11 14.5 43.5t26 72.5 29.5 81 25 71l212 618h190L604 0q-38-98-77.5-176.5t-88.5-134-109-85T191-425q-34 0-63 2t-61 9v135q19-3 43-4.5t41-1.5q79 0 147 59T417-38l17 43zm350 119v20l217 287h207v-29l-330-278h-94z"/><glyph unicode="þ" d="M138-425v1909h180v-423q0-30-.5-57.5T316 955q-1-25-2-47h6q25 52 57 88.5t73 60 91.5 34T655 1101q112 0 188.5-40t123-112.5 66.5-175 20-227.5q0-123-20-227t-66.5-179-123-117.5T655-20q-116 0-203 44T319 168h-5q1-2 1.5-18t1-40 1-53.5T318-2v-423H138zm180 953q0-115 19-194.5T392.5 205t90.5-70.5T607 113q75 0 124.5 29t79 84T852 360.5 864 542q0 100-12 178t-41.5 132-78.5 82-123 28q-60 0-113-17t-92.5-65T341 747.5 318 528z"/><glyph unicode="ÿ" horiz-adv-x="1024" d="M5 1082h192l228-598q10-27 25.5-72l31-90 27.5-81 14-45q3 11 14.5 43.5t26 72.5 29.5 81 25 71l212 618h190L604 0q-38-98-77.5-176.5t-88.5-134-109-85T191-425q-34 0-63 2t-61 9v135q19-3 43-4.5t41-1.5q79 0 147 59T417-38l17 43zm227 137v184h165v-184H232zm394 0v184h163v-184H626z"/><glyph unicode="Œ" horiz-adv-x="2048" d="M97 711q0 165 47 296.5t136 223T498 1371t293 49q26 0 55-1t57.5-2.5 54.5-3.5 45-4h914v-156h-803V801h743V647h-743V156h844V0H999q-20-3-45.5-4.5t-54-3-57-2T789-10q-169 0-298.5 53t-217 148.5-132 228T97 711zm194 0q0-129 32-233.5T418 299t156-114 215-40q32 0 70 1t64 3v1111q-11 1-27 2t-34.5 1.5-37 .5H791q-125 0-218.5-37t-156-108-94-174T291 711z"/><glyph unicode="œ" horiz-adv-x="1933" d="M86 542q0 279 126.5 419.5T581 1102q281 0 398-177 67 94 167 135.5t219 41.5q136 0 227.5-44t147-121.5 79-182.5 23.5-227v-24h-772q0-85 17.5-156.5t54-123 93.5-80 137-28.5q117 0 187.5 47t95.5 119l158-45q-17-45-47.5-90.5t-81.5-82-127.5-60T1372-20q-137 0-236 45.5T976 163Q913 70 812.5 25T575-20q-113 0-203.5 34t-154 104T120 293.5 86 542zm189 0q0-126 23.5-208.5t64-131.5 94.5-69 116-20q69 0 126 19.5t97.5 68.5T859 333t22 209-21 208-59.5 131-93.5 68.5T584 969q-69 0-126-20.5t-97.5-70-63-131.5T275 542zm797 99h584q-15 171-87 249.5T1362 969q-45 0-94.5-14.5T1176 903t-71-100.5-33-161.5z"/><glyph unicode="Ÿ" horiz-adv-x="1366" d="M45 1409h210l429-671 427 671h210L777 584V0H587v584zm360 121v184h165v-184H405zm394 0v184h163v-184H799z"/><glyph unicode="ˆ" horiz-adv-x="682" d="M0 1201v20l234 270h204l224-270v-20H557l-219 169h-2l-232-169H0z"/><glyph unicode="˜" horiz-adv-x="682" d="M-23 1201q5 45 15 92.5t32.5 86.5 59.5 64 96 25q44 0 86-18.5t81-41 73.5-41T485 1350q54 0 81.5 31.5T602 1469h92q-5-44-15-91.5t-31.5-86.5-58.5-64.5-97-25.5q-42 0-84 18.5t-81 41-74.5 41T186 1320q-55 0-82-31t-36-88h-91z"/><glyph horiz-adv-x="899"/><glyph horiz-adv-x="1798"/><glyph horiz-adv-x="899"/><glyph horiz-adv-x="1798"/><glyph horiz-adv-x="599"/><glyph horiz-adv-x="449"/><glyph horiz-adv-x="299"/><glyph horiz-adv-x="299"/><glyph horiz-adv-x="224"/><glyph horiz-adv-x="359"/><glyph horiz-adv-x="99"/><glyph unicode="‐" horiz-adv-x="682" d="M91 464v160h500V464H91z"/><glyph unicode="‑" horiz-adv-x="682" d="M91 464v160h500V464H91z"/><glyph unicode="‒" horiz-adv-x="682" d="M91 464v160h500V464H91z"/><glyph unicode="–" d="M0 451v137h1138V451H0z"/><glyph unicode="—" horiz-adv-x="2048" d="M0 451v137h2048V451H0z"/><glyph unicode="‘" horiz-adv-x="455" d="M127 952v146q0 52 5 95t15 80.5 25 70.5 35 65h121q-45-65-70-131t-25-131h89V952H127z"/><glyph unicode="’" horiz-adv-x="455" d="M127 952q45 65 69.5 131t24.5 129h-88v197h195v-145q0-53-4.5-96t-14.5-80.5-24.5-70.5-34.5-65H127z"/><glyph unicode="‚" horiz-adv-x="455" d="M127-262q45 65 69.5 131T221 0h-88v195h195V51q0-53-4.5-96.5t-14.5-81-24.5-70.5-34.5-65H127z"/><glyph unicode="“" horiz-adv-x="682" d="M75 952v146q0 52 5 95t15 80.5 25 70.5 35 65h121q-45-65-70-131t-25-131h89V952H75zm332 0v146q0 52 5 95t14.5 80.5 24 70.5 34.5 65h122q-45-65-69.5-131T513 1147h88V952H407z"/><glyph unicode="”" horiz-adv-x="682" d="M75 952q45 65 69.5 131t24.5 131H81v195h195v-145q0-53-4.5-96t-14.5-80.5-24.5-70.5-34.5-65H75zm332 0q45 65 69.5 131t24.5 131h-88v195h194v-145q0-53-5-96t-14.5-80.5T563 1017t-35-65H407z"/><glyph unicode="„" horiz-adv-x="682" d="M75-262q45 65 69.5 131T169 0H81v195h195V51q0-53-4.5-96.5t-14.5-81-24.5-70.5-34.5-65H75zm332 0q45 65 69.5 131T501 0h-88v195h194V51q0-53-5-96.5t-14.5-81T563-197t-35-65H407z"/><glyph unicode="•" horiz-adv-x="717" d="M81 682q0 57 21.5 107t59 87 87 58.5T355 956q58 0 109-21.5t89-58.5 60.5-87T636 682q0-58-22.5-109T553 483.5 464 423t-109-22q-57 0-106.5 22t-87 60.5-59 89.5T81 682z"/><glyph unicode="…" horiz-adv-x="2048" d="M278 0v219h195V0H278zm651 0v219h192V0H929zm647 0v219h194V0h-194z"/><glyph horiz-adv-x="359"/><glyph unicode="‹" horiz-adv-x="682" d="M88 506v63l336 371h167v-31L256 537l337-367v-29H424z"/><glyph unicode="›" horiz-adv-x="682" d="M89 141v29l338 367L91 909v31h166l337-371v-63L257 141H89z"/><glyph horiz-adv-x="449"/><glyph unicode="€" d="M16 502l40 129h120q-1 8-2 31t-1 47q0 27 1 53.5t2 32.5H16l40 127h129q15 122 51.5 216.5t98 159.5 148 98.5T684 1430q97 0 170.5-25t125-68.5 83-102.5 44.5-127l-185-14q-14 91-74.5 141T681 1284q-68 0-121-19.5t-92.5-63-64.5-112T367 922h446l-40-127H360q-2-16-2.5-39.5T357 709q0-22 1-40.5t3-37.5h452l-40-129H369q9-81 30-150t59.5-119 95.5-78.5T691 126q100 0 160 50t74 141l185-14q-13-68-44.5-127t-83-102.5T857.5 5 687-20q-120 0-208.5 38.5t-149 108-95 165.5T187 502H16z"/><glyph unicode="™" horiz-adv-x="2048" d="M188 1298v111h650v-111H577V634H443v664H188zm775-664v775h190l223-563q2-4 4.5-10.5t4.5-13.5l6-18q20 51 36 92 7 18 13.5 35t12 31 9 23 3.5 11l168 413h184V634h-126v619q-5-11-9-22-4-9-6.5-18t-4.5-14l-230-565h-108l-163 413q-2 5-14 37t-26 70q-17 44-37 99-1-10-1-20-1-8-1-17V634H963z"/><glyph unicode="◼" horiz-adv-x="1080" d="M0 0v1080h1080V0H0z"/></font>
</defs>
</svg>
