<svg width="36" height="36" xmlns="http://www.w3.org/2000/svg"><path d="M31.386 19.858c0-.536.18-1.073.18-1.788 0-.715 0-1.252-.18-1.788l3.76-3.04c.358-.358.358-.715.18-1.073l-3.581-6.26c-.18-.178-.538-.357-1.075-.178L26.194 7.52c-.895-.715-1.97-1.251-3.044-1.788l-.716-4.65c.18-.536-.358-.893-.716-.893h-7.162c-.358 0-.895.357-.895.715l-.716 4.828C11.87 6.09 10.975 6.804 9.9 7.52L5.604 5.731c-.537-.179-.895 0-1.253.358L.77 12.348c-.18.179 0 .715.358 1.073l3.76 2.86c0 .537-.18 1.074-.18 1.79 0 .714 0 1.25.18 1.787l-3.76 3.04c-.358.358-.358.716-.18 1.073l3.582 6.26c.179.178.537.357 1.074.178l4.476-1.788c.895.715 1.97 1.252 3.044 1.788l.716 4.65c0 .357.358.715.895.715h7.162c.358 0 .895-.358.895-.715l.716-4.65c1.075-.536 2.149-1.073 3.044-1.788l4.476 1.788c.358.179.895 0 1.075-.358l3.58-6.258c.18-.358.18-.895-.179-1.073l-4.118-2.862zM18.137 24.33c-3.402 0-6.266-2.861-6.266-6.259s2.864-6.259 6.266-6.259 6.267 2.861 6.267 6.26c0 3.397-2.865 6.258-6.267 6.258z" fill="#FFF" fill-rule="evenodd"/></svg>