<svg width="120" height="120" xmlns="http://www.w3.org/2000/svg"><defs><linearGradient x1="0%" y1="19.727%" x2="100%" y2="78.32%" id="a"><stop stop-color="#4CF2FF" offset="0%"/><stop stop-color="#00BFEF" offset="100%"/></linearGradient><linearGradient x1="0%" y1="52.363%" x2="100%" y2="52.363%" id="b"><stop stop-opacity=".091" offset="0%"/><stop stop-opacity="0" offset="50%"/><stop stop-opacity=".1" offset="50.498%"/><stop stop-opacity=".1" offset="100%"/></linearGradient><linearGradient x1="50%" y1="5.242%" x2="50%" y2="100%" id="c"><stop stop-opacity=".1" offset="0%"/><stop offset="100%"/></linearGradient></defs><g fill="none" fill-rule="evenodd"><path fill="url(#a)" d="M105.945 15v81.496L52.993 120 0 105V23.504L52.993 0z" transform="translate(7)"/><path fill="url(#b)" d="M105.945 15v81.496L52.993 120 0 105V23.504L52.993 0z" transform="translate(7)"/><path fill="url(#c)" opacity=".2" d="M85.269 9.154V77.52l-32.315 42.47-32.34-37.28V14.343L52.954 0z" transform="translate(7)"/><path d="M59.958 16.875l37.95 10.781v58.938l-37.95 16.531-37.95-10.781V33.406l14.056-6.122V80.39l23.894 6.796 23.894-10.421V39.609l-23.894-6.797-9.839 4.292V21.16z" fill="#FFF"/></g></svg>